<svg width="31" height="31" viewBox="0 0 31 31" fill="none" xmlns="http://www.w3.org/2000/svg">
<g clip-path="url(#clip0_507_666)">
<path d="M21.9583 27.7708L20.8346 26.7488C16.8433 23.1328 14.2083 20.748 14.2083 17.8211C14.2083 15.4363 16.0838 13.5625 18.4708 13.5625C19.8193 13.5625 21.1136 14.1897 21.9583 15.1808C22.8031 14.1897 24.0973 13.5625 25.4458 13.5625C27.8328 13.5625 29.7083 15.4363 29.7083 17.8211C29.7083 20.748 27.0733 23.1328 23.0821 26.7565L21.9583 27.7708Z" fill="white"/>
<path fill-rule="evenodd" clip-rule="evenodd" d="M12.3354 25.8721L14.2084 27.5771L16.0813 25.885L16.1323 25.8387C16.4428 25.5565 16.7484 25.2788 17.0488 25.0053C16.2829 24.2608 15.5991 23.5456 15.0253 22.8448C13.7783 21.3215 12.9167 19.7092 12.9167 17.8211C12.9167 14.7218 15.3716 12.2708 18.4709 12.2708C19.7439 12.2708 20.9688 12.7009 21.9584 13.4293C22.9479 12.7009 24.1728 12.2708 25.4459 12.2708C25.9809 12.2708 26.4968 12.3439 26.9841 12.4807C27.0773 11.9878 27.125 11.4884 27.125 10.9792C27.125 7.00083 23.9992 3.875 20.0209 3.875C17.7734 3.875 15.6163 4.92125 14.2084 6.57458C12.8004 4.92125 10.6434 3.875 8.39585 3.875C4.41752 3.875 1.29169 7.00083 1.29169 10.9792C1.29169 15.8577 5.67615 19.8335 12.3191 25.8572L12.3354 25.8721Z" fill="white"/>
</g>
<defs>
<clipPath id="clip0_507_666">
<rect width="31" height="31" fill="white"/>
</clipPath>
</defs>
</svg>
