<svg width="42" height="42" viewBox="0 0 42 42" fill="none" xmlns="http://www.w3.org/2000/svg">
<g clip-path="url(#clip0_438_11)">
<path d="M35.3325 7H7C5.075 7 3.5175 8.575 3.5175 10.5V17.5C5.4425 17.5 7 19.075 7 21C7 22.925 5.4425 24.5 3.5 24.5V31.5C3.5 33.425 5.075 35 7 35H35C36.925 35 38.5 33.425 38.5 31.5V10.5C38.5 8.575 37.0825 7 35.3325 7ZM31.0275 23.275L15.5225 27.405L12.6175 22.365L14.245 21.9275L16.45 23.66L20.6325 22.54L16.4325 15.26L18.8825 14.595L25.9 21.14L30.17 20.0025C31.0625 19.7575 31.99 20.3 32.235 21.1925C32.4625 22.085 31.9375 23.0125 31.0275 23.275Z" fill="white"/>
</g>
<defs>
<clipPath id="clip0_438_11">
<rect width="42" height="42" fill="white"/>
</clipPath>
</defs>
</svg>
