<svg width="83" height="50" viewBox="0 0 83 50" fill="none" xmlns="http://www.w3.org/2000/svg">
<path d="M10.5 9.58594V21H8.61719V11.8203L5.82812 12.7656V11.2109L10.2734 9.58594H10.5ZM14.6016 11.5547C14.6016 11.1745 14.6953 10.8255 14.8828 10.5078C15.0703 10.1901 15.3203 9.9375 15.6328 9.75C15.9505 9.55729 16.2943 9.46094 16.6641 9.46094C17.0391 9.46094 17.3802 9.55729 17.6875 9.75C17.9948 9.9375 18.2396 10.1901 18.4219 10.5078C18.6094 10.8255 18.7031 11.1745 18.7031 11.5547C18.7031 11.9349 18.6094 12.2839 18.4219 12.6016C18.2396 12.9141 17.9948 13.1615 17.6875 13.3438C17.3802 13.526 17.0391 13.6172 16.6641 13.6172C16.2943 13.6172 15.9505 13.526 15.6328 13.3438C15.3203 13.1615 15.0703 12.9141 14.8828 12.6016C14.6953 12.2839 14.6016 11.9349 14.6016 11.5547ZM15.6562 11.5547C15.6562 11.8359 15.7552 12.0729 15.9531 12.2656C16.151 12.4531 16.388 12.5469 16.6641 12.5469C16.9401 12.5469 17.1719 12.4531 17.3594 12.2656C17.5469 12.0781 17.6406 11.8411 17.6406 11.5547C17.6406 11.263 17.5469 11.0208 17.3594 10.8281C17.1719 10.6354 16.9401 10.5391 16.6641 10.5391C16.388 10.5391 16.151 10.6354 15.9531 10.8281C15.7552 11.0208 15.6562 11.263 15.6562 11.5547ZM28.7578 18.9219L31.75 9.625H33.9141L29.8359 21H28.375L28.7578 18.9219ZM25.9922 9.625L28.9609 18.9219L29.3672 21H27.8984L23.8359 9.625H25.9922ZM37.0156 12.5469V21H35.125V12.5469H37.0156ZM35 10.3281C35 10.0417 35.0938 9.80469 35.2812 9.61719C35.474 9.42448 35.7396 9.32812 36.0781 9.32812C36.4115 9.32812 36.6745 9.42448 36.8672 9.61719C37.0599 9.80469 37.1562 10.0417 37.1562 10.3281C37.1562 10.6094 37.0599 10.8438 36.8672 11.0312C36.6745 11.2188 36.4115 11.3125 36.0781 11.3125C35.7396 11.3125 35.474 11.2188 35.2812 11.0312C35.0938 10.8438 35 10.6094 35 10.3281ZM43.8438 19.3047V15.2734C43.8438 14.9714 43.7891 14.7109 43.6797 14.4922C43.5703 14.2734 43.4036 14.1042 43.1797 13.9844C42.9609 13.8646 42.6849 13.8047 42.3516 13.8047C42.0443 13.8047 41.7786 13.8568 41.5547 13.9609C41.3307 14.0651 41.1562 14.2057 41.0312 14.3828C40.9062 14.5599 40.8438 14.7604 40.8438 14.9844H38.9688C38.9688 14.651 39.0495 14.3281 39.2109 14.0156C39.3724 13.7031 39.6068 13.4245 39.9141 13.1797C40.2214 12.9349 40.5885 12.7422 41.0156 12.6016C41.4427 12.4609 41.9219 12.3906 42.4531 12.3906C43.0885 12.3906 43.651 12.4974 44.1406 12.7109C44.6354 12.9245 45.0234 13.2474 45.3047 13.6797C45.5911 14.1068 45.7344 14.6432 45.7344 15.2891V19.0469C45.7344 19.4323 45.7604 19.7786 45.8125 20.0859C45.8698 20.388 45.9505 20.651 46.0547 20.875V21H44.125C44.0365 20.7969 43.9661 20.5391 43.9141 20.2266C43.8672 19.9089 43.8438 19.6016 43.8438 19.3047ZM44.1172 15.8594L44.1328 17.0234H42.7812C42.4323 17.0234 42.125 17.0573 41.8594 17.125C41.5938 17.1875 41.3724 17.2812 41.1953 17.4062C41.0182 17.5312 40.8854 17.6823 40.7969 17.8594C40.7083 18.0365 40.6641 18.237 40.6641 18.4609C40.6641 18.6849 40.7161 18.8906 40.8203 19.0781C40.9245 19.2604 41.0755 19.4036 41.2734 19.5078C41.4766 19.612 41.7214 19.6641 42.0078 19.6641C42.3932 19.6641 42.7292 19.5859 43.0156 19.4297C43.3073 19.2682 43.5365 19.0729 43.7031 18.8438C43.8698 18.6094 43.9583 18.388 43.9688 18.1797L44.5781 19.0156C44.5156 19.2292 44.4089 19.4583 44.2578 19.7031C44.1068 19.9479 43.9089 20.1823 43.6641 20.4062C43.4245 20.625 43.1354 20.8047 42.7969 20.9453C42.4635 21.0859 42.0781 21.1562 41.6406 21.1562C41.0885 21.1562 40.5964 21.0469 40.1641 20.8281C39.7318 20.6042 39.3932 20.3047 39.1484 19.9297C38.9036 19.5495 38.7812 19.1198 38.7812 18.6406C38.7812 18.1927 38.8646 17.7969 39.0312 17.4531C39.2031 17.1042 39.4531 16.8125 39.7812 16.5781C40.1146 16.3438 40.5208 16.1667 41 16.0469C41.4792 15.9219 42.026 15.8594 42.6406 15.8594H44.1172ZM53.1172 12.5469H54.8281V20.7656C54.8281 21.526 54.6667 22.1719 54.3438 22.7031C54.0208 23.2344 53.5703 23.638 52.9922 23.9141C52.4141 24.1953 51.7448 24.3359 50.9844 24.3359C50.6615 24.3359 50.3021 24.2891 49.9062 24.1953C49.5156 24.1016 49.1354 23.9505 48.7656 23.7422C48.401 23.5391 48.0964 23.2708 47.8516 22.9375L48.7344 21.8281C49.0365 22.1875 49.3698 22.4505 49.7344 22.6172C50.099 22.7839 50.4818 22.8672 50.8828 22.8672C51.3151 22.8672 51.6823 22.7865 51.9844 22.625C52.2917 22.4688 52.5286 22.237 52.6953 21.9297C52.862 21.6224 52.9453 21.2474 52.9453 20.8047V14.4609L53.1172 12.5469ZM47.375 16.8672V16.7031C47.375 16.0625 47.4531 15.4792 47.6094 14.9531C47.7656 14.4219 47.9896 13.9661 48.2812 13.5859C48.5729 13.2005 48.9271 12.9062 49.3438 12.7031C49.7604 12.4948 50.2318 12.3906 50.7578 12.3906C51.3047 12.3906 51.7708 12.4896 52.1562 12.6875C52.5469 12.8854 52.8724 13.1693 53.1328 13.5391C53.3932 13.9036 53.5964 14.3411 53.7422 14.8516C53.8932 15.3568 54.0052 15.9193 54.0781 16.5391V17.0625C54.0104 17.6667 53.8958 18.2188 53.7344 18.7188C53.5729 19.2188 53.3594 19.651 53.0938 20.0156C52.8281 20.3802 52.5 20.6615 52.1094 20.8594C51.724 21.0573 51.2682 21.1562 50.7422 21.1562C50.2266 21.1562 49.7604 21.0495 49.3438 20.8359C48.9323 20.6224 48.5781 20.3229 48.2812 19.9375C47.9896 19.5521 47.7656 19.099 47.6094 18.5781C47.4531 18.0521 47.375 17.4818 47.375 16.8672ZM49.2578 16.7031V16.8672C49.2578 17.2526 49.2943 17.612 49.3672 17.9453C49.4453 18.2786 49.5625 18.5729 49.7188 18.8281C49.8802 19.0781 50.0833 19.276 50.3281 19.4219C50.5781 19.5625 50.8724 19.6328 51.2109 19.6328C51.6536 19.6328 52.0156 19.5391 52.2969 19.3516C52.5833 19.1641 52.8021 18.9115 52.9531 18.5938C53.1094 18.2708 53.2188 17.9115 53.2812 17.5156V16.1016C53.25 15.7943 53.1849 15.5078 53.0859 15.2422C52.9922 14.9766 52.8646 14.7448 52.7031 14.5469C52.5417 14.3438 52.3385 14.1875 52.0938 14.0781C51.849 13.9635 51.5599 13.9062 51.2266 13.9062C50.888 13.9062 50.5938 13.9792 50.3438 14.125C50.0938 14.2708 49.888 14.4714 49.7266 14.7266C49.5703 14.9818 49.4531 15.2786 49.375 15.6172C49.2969 15.9557 49.2578 16.3177 49.2578 16.7031ZM60.5078 21.1562C59.8828 21.1562 59.3177 21.0547 58.8125 20.8516C58.3125 20.6432 57.8854 20.3542 57.5312 19.9844C57.1823 19.6146 56.9141 19.1797 56.7266 18.6797C56.5391 18.1797 56.4453 17.6406 56.4453 17.0625V16.75C56.4453 16.0885 56.5417 15.4896 56.7344 14.9531C56.9271 14.4167 57.1953 13.9583 57.5391 13.5781C57.8828 13.1927 58.2891 12.8984 58.7578 12.6953C59.2266 12.4922 59.7344 12.3906 60.2812 12.3906C60.8854 12.3906 61.4141 12.4922 61.8672 12.6953C62.3203 12.8984 62.6953 13.1849 62.9922 13.5547C63.2943 13.9193 63.5182 14.3542 63.6641 14.8594C63.8151 15.3646 63.8906 15.9219 63.8906 16.5312V17.3359H57.3594V15.9844H62.0312V15.8359C62.0208 15.4974 61.9531 15.1797 61.8281 14.8828C61.7083 14.5859 61.5234 14.3464 61.2734 14.1641C61.0234 13.9818 60.6901 13.8906 60.2734 13.8906C59.9609 13.8906 59.6823 13.9583 59.4375 14.0938C59.1979 14.224 58.9974 14.4141 58.8359 14.6641C58.6745 14.9141 58.5495 15.2161 58.4609 15.5703C58.3776 15.9193 58.3359 16.3125 58.3359 16.75V17.0625C58.3359 17.4323 58.3854 17.776 58.4844 18.0938C58.5885 18.4062 58.7396 18.6797 58.9375 18.9141C59.1354 19.1484 59.375 19.3333 59.6562 19.4688C59.9375 19.599 60.2578 19.6641 60.6172 19.6641C61.0703 19.6641 61.474 19.5729 61.8281 19.3906C62.1823 19.2083 62.4896 18.9505 62.75 18.6172L63.7422 19.5781C63.5599 19.8438 63.3229 20.099 63.0312 20.3438C62.7396 20.5833 62.3828 20.7786 61.9609 20.9297C61.5443 21.0807 61.0599 21.1562 60.5078 21.1562ZM67.2422 14.2656V21H65.3594V12.5469H67.1328L67.2422 14.2656ZM66.9375 16.4609L66.2969 16.4531C66.2969 15.8698 66.3698 15.3307 66.5156 14.8359C66.6615 14.3411 66.875 13.9115 67.1562 13.5469C67.4375 13.1771 67.7865 12.8932 68.2031 12.6953C68.625 12.4922 69.112 12.3906 69.6641 12.3906C70.0495 12.3906 70.401 12.4479 70.7188 12.5625C71.0417 12.6719 71.3203 12.8464 71.5547 13.0859C71.7943 13.3255 71.9766 13.6328 72.1016 14.0078C72.2318 14.3828 72.2969 14.8359 72.2969 15.3672V21H70.4141V15.5312C70.4141 15.1198 70.3516 14.7969 70.2266 14.5625C70.1068 14.3281 69.9323 14.1615 69.7031 14.0625C69.4792 13.9583 69.2109 13.9062 68.8984 13.9062C68.5443 13.9062 68.2422 13.974 67.9922 14.1094C67.7474 14.2448 67.5469 14.4297 67.3906 14.6641C67.2344 14.8984 67.1198 15.1693 67.0469 15.4766C66.974 15.7839 66.9375 16.112 66.9375 16.4609ZM72.1797 15.9609L71.2969 16.1562C71.2969 15.6458 71.3672 15.1641 71.5078 14.7109C71.6536 14.2526 71.8646 13.8516 72.1406 13.5078C72.4219 13.1589 72.7682 12.8854 73.1797 12.6875C73.5911 12.4896 74.0625 12.3906 74.5938 12.3906C75.026 12.3906 75.4115 12.4505 75.75 12.5703C76.0938 12.6849 76.3854 12.8672 76.625 13.1172C76.8646 13.3672 77.0469 13.6927 77.1719 14.0938C77.2969 14.4896 77.3594 14.9688 77.3594 15.5312V21H75.4688V15.5234C75.4688 15.0964 75.4062 14.7656 75.2812 14.5312C75.1615 14.2969 74.9896 14.1354 74.7656 14.0469C74.5417 13.9531 74.2734 13.9062 73.9609 13.9062C73.6693 13.9062 73.4115 13.9609 73.1875 14.0703C72.9688 14.1745 72.7839 14.3229 72.6328 14.5156C72.4818 14.7031 72.3672 14.9193 72.2891 15.1641C72.2161 15.4089 72.1797 15.6745 72.1797 15.9609ZM12.9844 38.5V40H5.35938V38.7109L9.0625 34.6719C9.46875 34.2135 9.78906 33.8177 10.0234 33.4844C10.2578 33.151 10.4219 32.8516 10.5156 32.5859C10.6146 32.3151 10.6641 32.0521 10.6641 31.7969C10.6641 31.4375 10.5964 31.1224 10.4609 30.8516C10.3307 30.5755 10.138 30.3594 9.88281 30.2031C9.6276 30.0417 9.31771 29.9609 8.95312 29.9609C8.53125 29.9609 8.17708 30.0521 7.89062 30.2344C7.60417 30.4167 7.38802 30.6693 7.24219 30.9922C7.09635 31.3099 7.02344 31.6745 7.02344 32.0859H5.14062C5.14062 31.4245 5.29167 30.8203 5.59375 30.2734C5.89583 29.7214 6.33333 29.2839 6.90625 28.9609C7.47917 28.6328 8.16927 28.4688 8.97656 28.4688C9.73698 28.4688 10.3828 28.5964 10.9141 28.8516C11.4453 29.1068 11.849 29.4688 12.125 29.9375C12.4062 30.4062 12.5469 30.9609 12.5469 31.6016C12.5469 31.9557 12.4896 32.3073 12.375 32.6562C12.2604 33.0052 12.0964 33.3542 11.8828 33.7031C11.6745 34.0469 11.4271 34.3932 11.1406 34.7422C10.8542 35.0859 10.5391 35.4349 10.1953 35.7891L7.73438 38.5H12.9844ZM14.6016 30.5547C14.6016 30.1745 14.6953 29.8255 14.8828 29.5078C15.0703 29.1901 15.3203 28.9375 15.6328 28.75C15.9505 28.5573 16.2943 28.4609 16.6641 28.4609C17.0391 28.4609 17.3802 28.5573 17.6875 28.75C17.9948 28.9375 18.2396 29.1901 18.4219 29.5078C18.6094 29.8255 18.7031 30.1745 18.7031 30.5547C18.7031 30.9349 18.6094 31.2839 18.4219 31.6016C18.2396 31.9141 17.9948 32.1615 17.6875 32.3438C17.3802 32.526 17.0391 32.6172 16.6641 32.6172C16.2943 32.6172 15.9505 32.526 15.6328 32.3438C15.3203 32.1615 15.0703 31.9141 14.8828 31.6016C14.6953 31.2839 14.6016 30.9349 14.6016 30.5547ZM15.6562 30.5547C15.6562 30.8359 15.7552 31.0729 15.9531 31.2656C16.151 31.4531 16.388 31.5469 16.6641 31.5469C16.9401 31.5469 17.1719 31.4531 17.3594 31.2656C17.5469 31.0781 17.6406 30.8411 17.6406 30.5547C17.6406 30.263 17.5469 30.0208 17.3594 29.8281C17.1719 29.6354 16.9401 29.5391 16.6641 29.5391C16.388 29.5391 16.151 29.6354 15.9531 29.8281C15.7552 30.0208 15.6562 30.263 15.6562 30.5547ZM29.5391 36.5859V28.625H31.4922V36.5859C31.4922 37.3411 31.3307 37.9844 31.0078 38.5156C30.6849 39.0469 30.2448 39.4531 29.6875 39.7344C29.1302 40.0156 28.4974 40.1562 27.7891 40.1562C27.0651 40.1562 26.4219 40.0339 25.8594 39.7891C25.3021 39.5443 24.8646 39.1693 24.5469 38.6641C24.2292 38.1589 24.0703 37.5182 24.0703 36.7422H26.0391C26.0391 37.1901 26.1094 37.5521 26.25 37.8281C26.3958 38.099 26.599 38.2969 26.8594 38.4219C27.125 38.5417 27.4349 38.6016 27.7891 38.6016C28.1276 38.6016 28.4271 38.526 28.6875 38.375C28.9531 38.2188 29.1615 37.9922 29.3125 37.6953C29.4635 37.3932 29.5391 37.0234 29.5391 36.5859ZM38.6484 38.0078V31.5469H40.5391V40H38.7578L38.6484 38.0078ZM38.9141 36.25L39.5469 36.2344C39.5469 36.8021 39.4844 37.3255 39.3594 37.8047C39.2344 38.2786 39.0417 38.6927 38.7812 39.0469C38.5208 39.3958 38.1875 39.6693 37.7812 39.8672C37.375 40.0599 36.888 40.1562 36.3203 40.1562C35.9089 40.1562 35.5312 40.0964 35.1875 39.9766C34.8438 39.8568 34.5469 39.6719 34.2969 39.4219C34.0521 39.1719 33.862 38.8464 33.7266 38.4453C33.5911 38.0443 33.5234 37.5651 33.5234 37.0078V31.5469H35.4062V37.0234C35.4062 37.3307 35.4427 37.5885 35.5156 37.7969C35.5885 38 35.6875 38.1641 35.8125 38.2891C35.9375 38.4141 36.0833 38.5026 36.25 38.5547C36.4167 38.6068 36.5938 38.6328 36.7812 38.6328C37.3177 38.6328 37.7396 38.5286 38.0469 38.3203C38.3594 38.1068 38.5807 37.8203 38.7109 37.4609C38.8464 37.1016 38.9141 36.6979 38.9141 36.25ZM44.3359 33.3516V40H42.4531V31.5469H44.2266L44.3359 33.3516ZM44 35.4609L43.3906 35.4531C43.3958 34.8542 43.4792 34.3047 43.6406 33.8047C43.8073 33.3047 44.0365 32.875 44.3281 32.5156C44.625 32.1562 44.9792 31.8802 45.3906 31.6875C45.8021 31.4896 46.2604 31.3906 46.7656 31.3906C47.1719 31.3906 47.5391 31.4479 47.8672 31.5625C48.2005 31.6719 48.4844 31.8516 48.7188 32.1016C48.9583 32.3516 49.1406 32.6771 49.2656 33.0781C49.3906 33.474 49.4531 33.9609 49.4531 34.5391V40H47.5625V34.5312C47.5625 34.125 47.5026 33.8047 47.3828 33.5703C47.2682 33.3307 47.099 33.1615 46.875 33.0625C46.6562 32.9583 46.3828 32.9062 46.0547 32.9062C45.7318 32.9062 45.4427 32.974 45.1875 33.1094C44.9323 33.2448 44.7161 33.4297 44.5391 33.6641C44.3672 33.8984 44.2344 34.1693 44.1406 34.4766C44.0469 34.7839 44 35.112 44 35.4609ZM55.25 31.5469V32.9219H50.4844V31.5469H55.25ZM51.8594 29.4766H53.7422V37.6641C53.7422 37.9245 53.7786 38.125 53.8516 38.2656C53.9297 38.401 54.0365 38.4922 54.1719 38.5391C54.3073 38.5859 54.4661 38.6094 54.6484 38.6094C54.7786 38.6094 54.9036 38.6016 55.0234 38.5859C55.1432 38.5703 55.2396 38.5547 55.3125 38.5391L55.3203 39.9766C55.1641 40.0234 54.9818 40.0651 54.7734 40.1016C54.5703 40.138 54.3359 40.1562 54.0703 40.1562C53.638 40.1562 53.2552 40.0807 52.9219 39.9297C52.5885 39.7734 52.3281 39.5208 52.1406 39.1719C51.9531 38.8229 51.8594 38.3594 51.8594 37.7812V29.4766ZM56.1562 35.8672V35.6875C56.1562 35.0781 56.2448 34.513 56.4219 33.9922C56.599 33.4661 56.8542 33.0104 57.1875 32.625C57.526 32.2344 57.9375 31.9323 58.4219 31.7188C58.9115 31.5 59.4635 31.3906 60.0781 31.3906C60.6979 31.3906 61.25 31.5 61.7344 31.7188C62.224 31.9323 62.638 32.2344 62.9766 32.625C63.3151 33.0104 63.5729 33.4661 63.75 33.9922C63.9271 34.513 64.0156 35.0781 64.0156 35.6875V35.8672C64.0156 36.4766 63.9271 37.0417 63.75 37.5625C63.5729 38.0833 63.3151 38.5391 62.9766 38.9297C62.638 39.3151 62.2266 39.6172 61.7422 39.8359C61.2578 40.0495 60.7083 40.1562 60.0938 40.1562C59.474 40.1562 58.9193 40.0495 58.4297 39.8359C57.9453 39.6172 57.5339 39.3151 57.1953 38.9297C56.8568 38.5391 56.599 38.0833 56.4219 37.5625C56.2448 37.0417 56.1562 36.4766 56.1562 35.8672ZM58.0391 35.6875V35.8672C58.0391 36.2474 58.0781 36.6068 58.1562 36.9453C58.2344 37.2839 58.3568 37.5807 58.5234 37.8359C58.6901 38.0911 58.9036 38.2917 59.1641 38.4375C59.4245 38.5833 59.7344 38.6562 60.0938 38.6562C60.4427 38.6562 60.7448 38.5833 61 38.4375C61.2604 38.2917 61.474 38.0911 61.6406 37.8359C61.8073 37.5807 61.9297 37.2839 62.0078 36.9453C62.0911 36.6068 62.1328 36.2474 62.1328 35.8672V35.6875C62.1328 35.3125 62.0911 34.9583 62.0078 34.625C61.9297 34.2865 61.8047 33.987 61.6328 33.7266C61.4661 33.4661 61.2526 33.263 60.9922 33.1172C60.737 32.9661 60.4323 32.8906 60.0781 32.8906C59.724 32.8906 59.4167 32.9661 59.1562 33.1172C58.901 33.263 58.6901 33.4661 58.5234 33.7266C58.3568 33.987 58.2344 34.2865 58.1562 34.625C58.0781 34.9583 58.0391 35.3125 58.0391 35.6875ZM70.3359 37.7109C70.3359 37.5234 70.2891 37.3542 70.1953 37.2031C70.1016 37.0469 69.9219 36.9062 69.6562 36.7812C69.3958 36.6562 69.0104 36.5417 68.5 36.4375C68.0521 36.3385 67.6406 36.2214 67.2656 36.0859C66.8958 35.9453 66.5781 35.776 66.3125 35.5781C66.0469 35.3802 65.8411 35.1458 65.6953 34.875C65.5495 34.6042 65.4766 34.2917 65.4766 33.9375C65.4766 33.5938 65.5521 33.2682 65.7031 32.9609C65.8542 32.6536 66.0703 32.3828 66.3516 32.1484C66.6328 31.9141 66.974 31.7292 67.375 31.5938C67.7812 31.4583 68.2344 31.3906 68.7344 31.3906C69.4427 31.3906 70.0495 31.5104 70.5547 31.75C71.0651 31.9844 71.4557 32.3047 71.7266 32.7109C71.9974 33.112 72.1328 33.5651 72.1328 34.0703H70.25C70.25 33.8464 70.1927 33.638 70.0781 33.4453C69.9688 33.2474 69.8021 33.0885 69.5781 32.9688C69.3542 32.8438 69.0729 32.7812 68.7344 32.7812C68.4115 32.7812 68.1432 32.8333 67.9297 32.9375C67.7214 33.0365 67.5651 33.1667 67.4609 33.3281C67.362 33.4896 67.3125 33.6667 67.3125 33.8594C67.3125 34 67.3385 34.1276 67.3906 34.2422C67.4479 34.3516 67.5417 34.4531 67.6719 34.5469C67.8021 34.6354 67.9792 34.7188 68.2031 34.7969C68.4323 34.875 68.7188 34.9505 69.0625 35.0234C69.7083 35.1589 70.263 35.3333 70.7266 35.5469C71.1953 35.7552 71.5547 36.026 71.8047 36.3594C72.0547 36.6875 72.1797 37.1042 72.1797 37.6094C72.1797 37.9844 72.099 38.3281 71.9375 38.6406C71.7812 38.9479 71.5521 39.2161 71.25 39.4453C70.9479 39.6693 70.5859 39.8438 70.1641 39.9688C69.7474 40.0938 69.2786 40.1562 68.7578 40.1562C67.9922 40.1562 67.3438 40.0208 66.8125 39.75C66.2812 39.474 65.8776 39.1224 65.6016 38.6953C65.3307 38.263 65.1953 37.8151 65.1953 37.3516H67.0156C67.0365 37.7005 67.1328 37.9792 67.3047 38.1875C67.4818 38.3906 67.7005 38.5391 67.9609 38.6328C68.2266 38.7214 68.5 38.7656 68.7812 38.7656C69.1198 38.7656 69.4036 38.7214 69.6328 38.6328C69.862 38.5391 70.0365 38.4141 70.1562 38.2578C70.276 38.0964 70.3359 37.9141 70.3359 37.7109Z" fill="white"/>
</svg>
