<svg width="111" height="50" viewBox="0 0 111 50" fill="none" xmlns="http://www.w3.org/2000/svg">
<rect x="1" y="1" width="109" height="48" rx="9" stroke="white" stroke-width="2"/>
<g clip-path="url(#clip0_451_276)">
<path d="M26.75 9.25C18.0525 9.25 11 16.3025 11 25H5.75L12.5575 31.8075L12.68 32.0525L19.75 25H14.5C14.5 18.2275 19.9775 12.75 26.75 12.75C33.5225 12.75 39 18.2275 39 25C39 31.7725 33.5225 37.25 26.75 37.25C23.3725 37.25 20.31 35.8675 18.105 33.645L15.62 36.13C18.4725 38.9825 22.3925 40.75 26.75 40.75C35.4475 40.75 42.5 33.6975 42.5 25C42.5 16.3025 35.4475 9.25 26.75 9.25ZM25 18V26.75L32.49 31.195L33.75 29.0775L27.625 25.4375V18H25Z" fill="white"/>
</g>
<path d="M62.0679 11.984C61.4919 11.984 61.0333 12.1707 60.6919 12.544C60.3506 12.9067 60.1799 13.408 60.1799 14.048C60.1799 14.72 60.3506 15.248 60.6919 15.632C61.0439 16.0053 61.5026 16.192 62.0679 16.192C62.6653 16.192 63.1293 16.0107 63.4599 15.648C63.7906 15.2747 63.9559 14.7413 63.9559 14.048C63.9559 13.3867 63.7853 12.88 63.4439 12.528C63.1133 12.1653 62.6546 11.984 62.0679 11.984ZM62.0679 18.16C60.6279 18.16 59.5133 17.7227 58.7239 16.848C57.9453 15.9627 57.5559 14.64 57.5559 12.88C57.5559 10.64 58.0093 8.96 58.9159 7.84C59.8226 6.72 61.1133 6.16 62.7879 6.16C63.3746 6.16 63.9186 6.20267 64.4199 6.288C64.6759 6.33067 64.8839 6.45867 65.0439 6.672C65.2146 6.88533 65.2999 7.12533 65.2999 7.392V7.68C65.2999 7.904 65.2093 8.08 65.0279 8.208C64.8573 8.336 64.6599 8.37333 64.4359 8.32C63.8706 8.192 63.3533 8.128 62.8839 8.128C62.1373 8.128 61.5293 8.36267 61.0599 8.832C60.6013 9.29067 60.3186 9.95733 60.2119 10.832C60.2119 10.8427 60.2173 10.848 60.2279 10.848H60.2439C60.8413 10.3893 61.6359 10.16 62.6279 10.16C63.8866 10.16 64.8573 10.4907 65.5399 11.152C66.2226 11.8133 66.5639 12.7627 66.5639 14C66.5639 15.3013 66.1639 16.32 65.3639 17.056C64.5639 17.792 63.4653 18.16 62.0679 18.16ZM69.2742 8.512C69.0289 8.512 68.8155 8.42133 68.6342 8.24C68.4529 8.05867 68.3622 7.84533 68.3622 7.6V7.232C68.3622 6.98667 68.4529 6.77333 68.6342 6.592C68.8155 6.41067 69.0289 6.32 69.2742 6.32H75.6742C75.9195 6.32 76.1275 6.41067 76.2982 6.592C76.4795 6.77333 76.5702 6.98667 76.5702 7.232V7.6C76.5702 8.18667 76.4209 8.74667 76.1222 9.28C74.7569 11.6373 73.5835 14.256 72.6022 17.136C72.5169 17.392 72.3622 17.6 72.1382 17.76C71.9142 17.92 71.6689 18 71.4022 18H70.3142C70.0902 18 69.9142 17.9093 69.7862 17.728C69.6582 17.5467 69.6369 17.3493 69.7222 17.136C70.9062 14.0533 72.3195 11.2107 73.9622 8.608C73.9835 8.58667 73.9942 8.56533 73.9942 8.544C73.9942 8.52267 73.9835 8.512 73.9622 8.512H69.2742ZM79.8084 18C79.5631 18 79.3498 17.9093 79.1684 17.728C78.9871 17.5467 78.8964 17.3333 78.8964 17.088V16.72C78.8964 16.1227 79.1364 15.6373 79.6164 15.264C81.4084 13.856 82.5924 12.784 83.1684 12.048C83.7551 11.312 84.0484 10.592 84.0484 9.888C84.0484 8.90667 83.5044 8.416 82.4164 8.416C81.7551 8.416 80.9444 8.59733 79.9844 8.96C79.7818 9.03467 79.5898 9.01333 79.4084 8.896C79.2271 8.77867 79.1364 8.61333 79.1364 8.4V7.728C79.1364 7.45067 79.2164 7.20533 79.3764 6.992C79.5364 6.768 79.7498 6.61867 80.0164 6.544C80.9871 6.288 81.9204 6.16 82.8164 6.16C84.1071 6.16 85.0991 6.46933 85.7924 7.088C86.4964 7.696 86.8484 8.544 86.8484 9.632C86.8484 10.5707 86.5498 11.4667 85.9524 12.32C85.3658 13.1627 84.2138 14.3093 82.4964 15.76C82.4858 15.7707 82.4804 15.7813 82.4804 15.792C82.4804 15.8027 82.4858 15.808 82.4964 15.808H86.0004C86.2458 15.808 86.4538 15.8987 86.6244 16.08C86.8058 16.2613 86.8964 16.4747 86.8964 16.72V17.088C86.8964 17.3333 86.8058 17.5467 86.6244 17.728C86.4538 17.9093 86.2458 18 86.0004 18H79.8084ZM96.7003 11.42C95.3003 11.42 94.6003 12.4 94.6003 14.36C94.6003 15.3307 94.7823 16.0633 95.1463 16.558C95.5196 17.0527 96.0376 17.3 96.7003 17.3C97.2416 17.3 97.7269 17.1133 98.1563 16.74C98.5856 16.3573 98.8003 15.9233 98.8003 15.438V13.282C98.8003 12.806 98.5856 12.3767 98.1563 11.994C97.7363 11.6113 97.2509 11.42 96.7003 11.42ZM96.4763 18.14C95.6083 18.14 94.8989 17.804 94.3483 17.132C93.8069 16.4507 93.5363 15.5267 93.5363 14.36C93.5363 13.156 93.7976 12.2273 94.3203 11.574C94.8523 10.9113 95.5709 10.58 96.4763 10.58C97.3909 10.58 98.1516 10.9393 98.7583 11.658C98.7676 11.6673 98.7769 11.672 98.7863 11.672C98.7956 11.672 98.8003 11.6673 98.8003 11.658V8.032C98.8003 7.88267 98.8516 7.75667 98.9543 7.654C99.0663 7.55133 99.1969 7.5 99.3463 7.5C99.4956 7.5 99.6216 7.55133 99.7243 7.654C99.8269 7.75667 99.8783 7.88267 99.8783 8.032V17.496C99.8783 17.636 99.8269 17.7573 99.7243 17.86C99.6309 17.9533 99.5143 18 99.3743 18C99.2343 18 99.1129 17.9533 99.0103 17.86C98.9076 17.7573 98.8563 17.636 98.8563 17.496V16.978C98.8563 16.9687 98.8516 16.964 98.8423 16.964C98.8329 16.964 98.8236 16.9687 98.8143 16.978C98.1889 17.7527 97.4096 18.14 96.4763 18.14ZM69.5116 32C69.2662 32 69.0529 31.9093 68.8716 31.728C68.6902 31.5467 68.5996 31.3333 68.5996 31.088V30.72C68.5996 30.1227 68.8396 29.6373 69.3196 29.264C71.1116 27.856 72.2956 26.784 72.8716 26.048C73.4582 25.312 73.7516 24.592 73.7516 23.888C73.7516 22.9067 73.2076 22.416 72.1196 22.416C71.4582 22.416 70.6476 22.5973 69.6876 22.96C69.4849 23.0347 69.2929 23.0133 69.1116 22.896C68.9302 22.7787 68.8396 22.6133 68.8396 22.4V21.728C68.8396 21.4507 68.9196 21.2053 69.0796 20.992C69.2396 20.768 69.4529 20.6187 69.7196 20.544C70.6902 20.288 71.6236 20.16 72.5196 20.16C73.8102 20.16 74.8022 20.4693 75.4956 21.088C76.1996 21.696 76.5516 22.544 76.5516 23.632C76.5516 24.5707 76.2529 25.4667 75.6556 26.32C75.0689 27.1627 73.9169 28.3093 72.1996 29.76C72.1889 29.7707 72.1836 29.7813 72.1836 29.792C72.1836 29.8027 72.1889 29.808 72.1996 29.808H75.7036C75.9489 29.808 76.1569 29.8987 76.3276 30.08C76.5089 30.2613 76.5996 30.4747 76.5996 30.72V31.088C76.5996 31.3333 76.5089 31.5467 76.3276 31.728C76.1569 31.9093 75.9489 32 75.7036 32H69.5116ZM80.0298 25.008C79.8805 25.1253 79.7205 25.1413 79.5498 25.056C79.3898 24.9707 79.3098 24.832 79.3098 24.64V23.472C79.3098 22.864 79.5551 22.384 80.0458 22.032L81.6618 20.848C82.1418 20.496 82.6911 20.32 83.3098 20.32H84.3178C84.5631 20.32 84.7765 20.4107 84.9578 20.592C85.1391 20.7733 85.2298 20.9867 85.2298 21.232V31.088C85.2298 31.3333 85.1391 31.5467 84.9578 31.728C84.7765 31.9093 84.5631 32 84.3178 32H83.3098C83.0645 32 82.8511 31.9093 82.6698 31.728C82.4885 31.5467 82.3978 31.3333 82.3978 31.088V23.312H82.3818H82.3658L80.0298 25.008ZM95.0596 31.846C94.957 31.9487 94.831 32 94.6816 32C94.5323 32 94.4016 31.9487 94.2896 31.846C94.187 31.7433 94.1356 31.6173 94.1356 31.468V22.032C94.1356 21.8827 94.187 21.7567 94.2896 21.654C94.4016 21.5513 94.5323 21.5 94.6816 21.5C94.831 21.5 94.957 21.5513 95.0596 21.654C95.1623 21.7567 95.2136 21.8827 95.2136 22.032V25.812C95.2136 25.8213 95.2183 25.826 95.2276 25.826C95.237 25.826 95.2463 25.8213 95.2556 25.812C95.9276 24.9907 96.707 24.58 97.5936 24.58C98.443 24.58 99.059 24.818 99.4416 25.294C99.8243 25.7607 100.016 26.5493 100.016 27.66V31.468C100.016 31.6173 99.9643 31.7433 99.8616 31.846C99.7683 31.9487 99.647 32 99.4976 32C99.3483 32 99.2223 31.9487 99.1196 31.846C99.017 31.7433 98.9656 31.6173 98.9656 31.468V27.842C98.9656 26.8993 98.8396 26.2693 98.5876 25.952C98.345 25.6253 97.9203 25.462 97.3136 25.462C96.8283 25.462 96.357 25.6953 95.8996 26.162C95.4423 26.6193 95.2136 27.0907 95.2136 27.576V31.468C95.2136 31.6173 95.1623 31.7433 95.0596 31.846ZM70.649 39.008C70.4996 39.1253 70.3396 39.1413 70.169 39.056C70.009 38.9707 69.929 38.832 69.929 38.64V37.472C69.929 36.864 70.1743 36.384 70.665 36.032L72.281 34.848C72.761 34.496 73.3103 34.32 73.929 34.32H74.937C75.1823 34.32 75.3956 34.4107 75.577 34.592C75.7583 34.7733 75.849 34.9867 75.849 35.232V45.088C75.849 45.3333 75.7583 45.5467 75.577 45.728C75.3956 45.9093 75.1823 46 74.937 46H73.929C73.6836 46 73.4703 45.9093 73.289 45.728C73.1076 45.5467 73.017 45.3333 73.017 45.088V37.312H73.001H72.985L70.649 39.008ZM83.9512 36.128C83.3645 36.128 82.9005 36.304 82.5592 36.656C82.2285 37.008 82.0632 37.4933 82.0632 38.112C82.0632 38.848 82.2285 39.4027 82.5592 39.776C82.8899 40.1493 83.3539 40.336 83.9512 40.336C84.5379 40.336 84.9965 40.144 85.3272 39.76C85.6685 39.376 85.8392 38.8267 85.8392 38.112C85.8392 37.5147 85.6632 37.0347 85.3112 36.672C84.9592 36.3093 84.5059 36.128 83.9512 36.128ZM83.3912 42.16C82.1219 42.16 81.1459 41.8187 80.4632 41.136C79.7912 40.4533 79.4552 39.4613 79.4552 38.16C79.4552 36.9333 79.8552 35.9627 80.6552 35.248C81.4659 34.5227 82.5645 34.16 83.9512 34.16C85.3912 34.16 86.5005 34.592 87.2792 35.456C88.0685 36.32 88.4632 37.5947 88.4632 39.28C88.4632 43.8667 86.7192 46.16 83.2312 46.16C82.6445 46.16 82.0472 46.112 81.4392 46.016C81.1832 45.9733 80.9699 45.8507 80.7992 45.648C80.6392 45.4347 80.5592 45.1947 80.5592 44.928V44.64C80.5592 44.416 80.6499 44.24 80.8312 44.112C81.0125 43.9733 81.2152 43.9307 81.4392 43.984C82.0472 44.1227 82.6125 44.192 83.1352 44.192C83.9459 44.192 84.5805 43.9627 85.0392 43.504C85.5085 43.0453 85.7645 42.3733 85.8072 41.488C85.8072 41.4773 85.8019 41.472 85.7912 41.472H85.7752C85.1779 41.9307 84.3832 42.16 83.3912 42.16ZM97.401 42.738C96.4957 42.5233 95.847 42.248 95.455 41.912C95.0723 41.5667 94.881 41.1233 94.881 40.582C94.881 39.966 95.1097 39.4807 95.567 39.126C96.0337 38.762 96.6963 38.58 97.555 38.58C98.199 38.58 98.8383 38.664 99.473 38.832C99.7623 38.9067 99.907 39.098 99.907 39.406C99.907 39.518 99.865 39.602 99.781 39.658C99.697 39.714 99.599 39.728 99.487 39.7C98.871 39.5133 98.255 39.42 97.639 39.42C96.519 39.42 95.959 39.7793 95.959 40.498C95.959 40.8153 96.071 41.0813 96.295 41.296C96.519 41.5013 96.925 41.6693 97.513 41.8C98.521 42.024 99.2117 42.3087 99.585 42.654C99.9677 42.9993 100.159 43.494 100.159 44.138C100.159 44.7633 99.9163 45.2533 99.431 45.608C98.955 45.9627 98.2783 46.14 97.401 46.14C96.7197 46.14 96.071 46.0373 95.455 45.832C95.1657 45.7387 95.021 45.538 95.021 45.23C95.021 45.1273 95.0677 45.048 95.161 44.992C95.2543 44.9267 95.3523 44.9127 95.455 44.95C96.0617 45.1833 96.6823 45.3 97.317 45.3C98.493 45.3 99.081 44.9127 99.081 44.138C99.081 43.802 98.9597 43.522 98.717 43.298C98.4837 43.074 98.045 42.8873 97.401 42.738Z" fill="white"/>
<defs>
<clipPath id="clip0_451_276">
<rect width="42" height="42" fill="white" transform="translate(4 4)"/>
</clipPath>
</defs>
</svg>
