<svg width="132" height="50" viewBox="0 0 132 50" fill="none" xmlns="http://www.w3.org/2000/svg">
<rect x="1" y="1" width="130" height="48" rx="9" stroke="white" stroke-width="2"/>
<g clip-path="url(#clip0_451_143)">
<path d="M39.3325 11H11C9.075 11 7.5175 12.575 7.5175 14.5V21.5C9.4425 21.5 11 23.075 11 25C11 26.925 9.4425 28.5 7.5 28.5V35.5C7.5 37.425 9.075 39 11 39H39C40.925 39 42.5 37.425 42.5 35.5V14.5C42.5 12.575 41.0825 11 39.3325 11ZM35.0275 27.275L19.5225 31.405L16.6175 26.365L18.245 25.9275L20.45 27.66L24.6325 26.54L20.4325 19.26L22.8825 18.595L29.9 25.14L34.17 24.0025C35.0625 23.7575 35.99 24.3 36.235 25.1925C36.4625 26.085 35.9375 27.0125 35.0275 27.275Z" fill="white"/>
</g>
<path d="M61.012 21.14C59.668 21.14 58.59 20.6827 57.778 19.768C56.966 18.844 56.56 17.5513 56.56 15.89C56.56 14.238 56.9473 12.95 57.722 12.026C58.506 11.102 59.5887 10.64 60.97 10.64C61.698 10.64 62.3467 10.71 62.916 10.85C63.056 10.8873 63.168 10.9667 63.252 11.088C63.3453 11.2093 63.392 11.3447 63.392 11.494C63.392 11.6153 63.3407 11.7133 63.238 11.788C63.1447 11.8533 63.0373 11.8673 62.916 11.83C62.3653 11.662 61.7493 11.578 61.068 11.578C60.0133 11.578 59.1873 11.956 58.59 12.712C57.9927 13.468 57.694 14.5273 57.694 15.89C57.694 17.2433 58.002 18.3027 58.618 19.068C59.2433 19.824 60.074 20.202 61.11 20.202C61.8007 20.202 62.426 20.118 62.986 19.95C63.1073 19.9127 63.2147 19.9313 63.308 20.006C63.4107 20.0713 63.462 20.1647 63.462 20.286C63.462 20.4353 63.4153 20.5707 63.322 20.692C63.238 20.804 63.126 20.8787 62.986 20.916C62.3607 21.0653 61.7027 21.14 61.012 21.14ZM66.6299 20.846C66.5273 20.9487 66.4013 21 66.2519 21C66.1026 21 65.9719 20.9487 65.8599 20.846C65.7573 20.7433 65.7059 20.6173 65.7059 20.468V11.032C65.7059 10.8827 65.7573 10.7567 65.8599 10.654C65.9719 10.5513 66.1026 10.5 66.2519 10.5C66.4013 10.5 66.5273 10.5513 66.6299 10.654C66.7326 10.7567 66.7839 10.8827 66.7839 11.032V14.812C66.7839 14.8213 66.7886 14.826 66.7979 14.826C66.8073 14.826 66.8166 14.8213 66.8259 14.812C67.4979 13.9907 68.2773 13.58 69.1639 13.58C70.0133 13.58 70.6293 13.818 71.0119 14.294C71.3946 14.7607 71.5859 15.5493 71.5859 16.66V20.468C71.5859 20.6173 71.5346 20.7433 71.4319 20.846C71.3386 20.9487 71.2173 21 71.0679 21C70.9186 21 70.7926 20.9487 70.6899 20.846C70.5873 20.7433 70.5359 20.6173 70.5359 20.468V16.842C70.5359 15.8993 70.4099 15.2693 70.1579 14.952C69.9153 14.6253 69.4906 14.462 68.8839 14.462C68.3986 14.462 67.9273 14.6953 67.4699 15.162C67.0126 15.6193 66.7839 16.0907 66.7839 16.576V20.468C66.7839 20.6173 66.7326 20.7433 66.6299 20.846ZM75.1323 20.832C75.0296 20.944 74.899 21 74.7403 21C74.5816 21 74.4463 20.944 74.3343 20.832C74.2316 20.72 74.1803 20.5893 74.1803 20.44V14.28C74.1803 14.1307 74.2316 14 74.3343 13.888C74.4463 13.776 74.5816 13.72 74.7403 13.72C74.899 13.72 75.0296 13.776 75.1323 13.888C75.2443 14 75.3003 14.1307 75.3003 14.28V20.44C75.3003 20.5893 75.2443 20.72 75.1323 20.832ZM75.1323 11.844C75.0296 11.9467 74.899 11.998 74.7403 11.998C74.5816 11.998 74.4463 11.9467 74.3343 11.844C74.2316 11.732 74.1803 11.5967 74.1803 11.438V11.06C74.1803 10.9107 74.2316 10.78 74.3343 10.668C74.4463 10.556 74.5816 10.5 74.7403 10.5C74.899 10.5 75.0296 10.556 75.1323 10.668C75.2443 10.78 75.3003 10.9107 75.3003 11.06V11.438C75.3003 11.5967 75.2443 11.732 75.1323 11.844ZM79.1929 20.832C79.0902 20.944 78.9595 21 78.8009 21C78.6422 21 78.5069 20.944 78.3949 20.832C78.2922 20.72 78.2409 20.5893 78.2409 20.44V11.06C78.2409 10.9107 78.2922 10.78 78.3949 10.668C78.5069 10.556 78.6422 10.5 78.8009 10.5C78.9595 10.5 79.0902 10.556 79.1929 10.668C79.3049 10.78 79.3609 10.9107 79.3609 11.06V20.44C79.3609 20.5893 79.3049 20.72 79.1929 20.832ZM84.7448 14.392C83.4475 14.392 82.7382 15.162 82.6168 16.702C82.6168 16.7767 82.6588 16.814 82.7428 16.814H86.5088C86.5835 16.814 86.6208 16.7767 86.6208 16.702C86.5648 15.162 85.9395 14.392 84.7448 14.392ZM85.0388 21.14C83.8908 21.14 83.0182 20.8273 82.4208 20.202C81.8235 19.5673 81.5248 18.62 81.5248 17.36C81.5248 16.0627 81.8095 15.1107 82.3788 14.504C82.9575 13.888 83.7462 13.58 84.7448 13.58C86.5835 13.58 87.5588 14.6673 87.6708 16.842C87.6802 17.066 87.6008 17.2573 87.4328 17.416C87.2742 17.5653 87.0828 17.64 86.8588 17.64H82.7148C82.6402 17.64 82.6028 17.682 82.6028 17.766C82.6868 19.474 83.5315 20.328 85.1368 20.328C85.6688 20.328 86.2148 20.23 86.7748 20.034C86.8775 19.9967 86.9755 20.0107 87.0688 20.076C87.1622 20.132 87.2088 20.216 87.2088 20.328C87.2088 20.6453 87.0642 20.8413 86.7748 20.916C86.1775 21.0653 85.5988 21.14 85.0388 21.14ZM95.8601 14.392C94.5627 14.392 93.8534 15.162 93.7321 16.702C93.7321 16.7767 93.7741 16.814 93.8581 16.814H97.6241C97.6987 16.814 97.7361 16.7767 97.7361 16.702C97.6801 15.162 97.0547 14.392 95.8601 14.392ZM96.1541 21.14C95.0061 21.14 94.1334 20.8273 93.5361 20.202C92.9387 19.5673 92.6401 18.62 92.6401 17.36C92.6401 16.0627 92.9247 15.1107 93.4941 14.504C94.0727 13.888 94.8614 13.58 95.8601 13.58C97.6987 13.58 98.6741 14.6673 98.7861 16.842C98.7954 17.066 98.7161 17.2573 98.5481 17.416C98.3894 17.5653 98.1981 17.64 97.9741 17.64H93.8301C93.7554 17.64 93.7181 17.682 93.7181 17.766C93.8021 19.474 94.6467 20.328 96.2521 20.328C96.7841 20.328 97.3301 20.23 97.8901 20.034C97.9927 19.9967 98.0907 20.0107 98.1841 20.076C98.2774 20.132 98.3241 20.216 98.3241 20.328C98.3241 20.6453 98.1794 20.8413 97.8901 20.916C97.2927 21.0653 96.7141 21.14 96.1541 21.14ZM101.396 20.846C101.293 20.9487 101.167 21 101.018 21C100.869 21 100.738 20.9487 100.626 20.846C100.523 20.7433 100.472 20.6173 100.472 20.468V14.238C100.472 14.098 100.523 13.9767 100.626 13.874C100.729 13.7713 100.85 13.72 100.99 13.72C101.13 13.72 101.251 13.7713 101.354 13.874C101.457 13.9767 101.508 14.098 101.508 14.238L101.522 14.7C101.522 14.7093 101.527 14.714 101.536 14.714C101.555 14.714 101.564 14.7047 101.564 14.686C102.096 13.9487 102.731 13.58 103.468 13.58C103.916 13.58 104.275 13.678 104.546 13.874C104.826 14.07 105.055 14.3967 105.232 14.854C105.232 14.8727 105.237 14.882 105.246 14.882C105.265 14.882 105.274 14.8727 105.274 14.854C105.797 14.0047 106.478 13.58 107.318 13.58C108.065 13.58 108.601 13.7947 108.928 14.224C109.264 14.6533 109.432 15.372 109.432 16.38V20.468C109.432 20.6173 109.381 20.7433 109.278 20.846C109.185 20.9487 109.063 21 108.914 21C108.765 21 108.639 20.9487 108.536 20.846C108.433 20.7433 108.382 20.6173 108.382 20.468V16.66C108.382 15.792 108.279 15.204 108.074 14.896C107.878 14.5787 107.528 14.42 107.024 14.42C106.679 14.42 106.338 14.6067 106.002 14.98C105.666 15.344 105.498 15.722 105.498 16.114V20.468C105.498 20.6173 105.447 20.7433 105.344 20.846C105.241 20.9487 105.115 21 104.966 21C104.817 21 104.691 20.9487 104.588 20.846C104.485 20.7433 104.434 20.6173 104.434 20.468V16.66C104.434 15.792 104.331 15.204 104.126 14.896C103.93 14.5787 103.585 14.42 103.09 14.42C102.745 14.42 102.399 14.6067 102.054 14.98C101.718 15.344 101.55 15.722 101.55 16.114V20.468C101.55 20.6173 101.499 20.7433 101.396 20.846ZM59.24 35.5V35.52C59.24 35.5333 59.2467 35.54 59.26 35.54H62.56C62.68 35.54 62.74 35.4867 62.74 35.38V30.54C62.74 30.5267 62.7333 30.52 62.72 30.52C62.6933 30.52 62.68 30.5267 62.68 30.54L59.24 35.5ZM57.36 38.2C57.0533 38.2 56.7867 38.0867 56.56 37.86C56.3467 37.6333 56.24 37.3667 56.24 37.06V36.68C56.24 35.9333 56.46 35.2467 56.9 34.62L62.08 27.32C62.52 26.7067 63.1133 26.4 63.86 26.4H64.86C65.1667 26.4 65.4267 26.5133 65.64 26.74C65.8667 26.9667 65.98 27.2333 65.98 27.54V35.38C65.98 35.4867 66.04 35.54 66.16 35.54H66.96C67.2667 35.54 67.5333 35.6533 67.76 35.88C67.9867 36.1067 68.1 36.3733 68.1 36.68V37.06C68.1 37.3667 67.9867 37.6333 67.76 37.86C67.5333 38.0867 67.2667 38.2 66.96 38.2H66.16C66.04 38.2 65.98 38.26 65.98 38.38V39.86C65.98 40.1667 65.8667 40.4333 65.64 40.66C65.4267 40.8867 65.1667 41 64.86 41H63.86C63.5533 41 63.2867 40.8867 63.06 40.66C62.8467 40.4333 62.74 40.1667 62.74 39.86V38.38C62.74 38.26 62.68 38.2 62.56 38.2H57.36ZM72.2478 35.5V35.52C72.2478 35.5333 72.2545 35.54 72.2678 35.54H75.5678C75.6878 35.54 75.7478 35.4867 75.7478 35.38V30.54C75.7478 30.5267 75.7411 30.52 75.7278 30.52C75.7011 30.52 75.6878 30.5267 75.6878 30.54L72.2478 35.5ZM70.3678 38.2C70.0611 38.2 69.7945 38.0867 69.5678 37.86C69.3545 37.6333 69.2478 37.3667 69.2478 37.06V36.68C69.2478 35.9333 69.4678 35.2467 69.9078 34.62L75.0878 27.32C75.5278 26.7067 76.1211 26.4 76.8678 26.4H77.8678C78.1745 26.4 78.4345 26.5133 78.6478 26.74C78.8745 26.9667 78.9878 27.2333 78.9878 27.54V35.38C78.9878 35.4867 79.0478 35.54 79.1678 35.54H79.9678C80.2745 35.54 80.5411 35.6533 80.7678 35.88C80.9945 36.1067 81.1078 36.3733 81.1078 36.68V37.06C81.1078 37.3667 80.9945 37.6333 80.7678 37.86C80.5411 38.0867 80.2745 38.2 79.9678 38.2H79.1678C79.0478 38.2 78.9878 38.26 78.9878 38.38V39.86C78.9878 40.1667 78.8745 40.4333 78.6478 40.66C78.4345 40.8867 78.1745 41 77.8678 41H76.8678C76.5611 41 76.2945 40.8867 76.0678 40.66C75.8545 40.4333 75.7478 40.1667 75.7478 39.86V38.38C75.7478 38.26 75.6878 38.2 75.5678 38.2H70.3678ZM91.7452 32.54C89.9452 32.54 89.0452 33.8 89.0452 36.32C89.0452 37.568 89.2792 38.51 89.7472 39.146C90.2272 39.782 90.8932 40.1 91.7452 40.1C92.4412 40.1 93.0652 39.86 93.6172 39.38C94.1692 38.888 94.4452 38.33 94.4452 37.706V34.934C94.4452 34.322 94.1692 33.77 93.6172 33.278C93.0772 32.786 92.4532 32.54 91.7452 32.54ZM91.4572 41.18C90.3412 41.18 89.4292 40.748 88.7212 39.884C88.0252 39.008 87.6772 37.82 87.6772 36.32C87.6772 34.772 88.0132 33.578 88.6852 32.738C89.3692 31.886 90.2932 31.46 91.4572 31.46C92.6332 31.46 93.6112 31.922 94.3912 32.846C94.4032 32.858 94.4152 32.864 94.4272 32.864C94.4392 32.864 94.4452 32.858 94.4452 32.846V28.184C94.4452 27.992 94.5112 27.83 94.6432 27.698C94.7872 27.566 94.9552 27.5 95.1472 27.5C95.3392 27.5 95.5012 27.566 95.6332 27.698C95.7652 27.83 95.8312 27.992 95.8312 28.184V40.352C95.8312 40.532 95.7652 40.688 95.6332 40.82C95.5132 40.94 95.3632 41 95.1832 41C95.0032 41 94.8472 40.94 94.7152 40.82C94.5832 40.688 94.5172 40.532 94.5172 40.352V39.686C94.5172 39.674 94.5112 39.668 94.4992 39.668C94.4872 39.668 94.4752 39.674 94.4632 39.686C93.6592 40.682 92.6572 41.18 91.4572 41.18ZM100.567 40.784C100.435 40.928 100.267 41 100.063 41C99.8594 41 99.6854 40.928 99.5414 40.784C99.4094 40.64 99.3434 40.472 99.3434 40.28V32.36C99.3434 32.168 99.4094 32 99.5414 31.856C99.6854 31.712 99.8594 31.64 100.063 31.64C100.267 31.64 100.435 31.712 100.567 31.856C100.711 32 100.783 32.168 100.783 32.36V40.28C100.783 40.472 100.711 40.64 100.567 40.784ZM100.567 29.228C100.435 29.36 100.267 29.426 100.063 29.426C99.8594 29.426 99.6854 29.36 99.5414 29.228C99.4094 29.084 99.3434 28.91 99.3434 28.706V28.22C99.3434 28.028 99.4094 27.86 99.5414 27.716C99.6854 27.572 99.8594 27.5 100.063 27.5C100.267 27.5 100.435 27.572 100.567 27.716C100.711 27.86 100.783 28.028 100.783 28.22V28.706C100.783 28.91 100.711 29.084 100.567 29.228ZM108.732 36.05C107.544 36.05 106.644 36.242 106.032 36.626C105.432 37.01 105.132 37.55 105.132 38.246C105.132 38.786 105.282 39.224 105.582 39.56C105.894 39.884 106.302 40.046 106.806 40.046C107.67 40.046 108.384 39.758 108.948 39.182C109.524 38.606 109.812 37.844 109.812 36.896V36.212C109.812 36.104 109.758 36.05 109.65 36.05H108.732ZM106.518 41.18C105.702 41.18 105.036 40.922 104.52 40.406C104.004 39.89 103.746 39.206 103.746 38.354C103.746 37.358 104.142 36.56 104.934 35.96C105.726 35.36 106.992 35.06 108.732 35.06H109.65C109.758 35.06 109.812 35.012 109.812 34.916V34.574C109.812 33.842 109.644 33.332 109.308 33.044C108.972 32.744 108.378 32.594 107.526 32.594C106.698 32.594 105.804 32.75 104.844 33.062C104.7 33.11 104.568 33.092 104.448 33.008C104.328 32.924 104.268 32.804 104.268 32.648C104.268 32.228 104.466 31.958 104.862 31.838C105.75 31.586 106.638 31.46 107.526 31.46C108.906 31.46 109.86 31.712 110.388 32.216C110.928 32.72 111.198 33.626 111.198 34.934V40.352C111.198 40.532 111.132 40.688 111 40.82C110.88 40.94 110.73 41 110.55 41C110.37 41 110.214 40.94 110.082 40.82C109.95 40.688 109.884 40.532 109.884 40.352L109.866 39.416C109.866 39.404 109.86 39.398 109.848 39.398C109.824 39.398 109.812 39.41 109.812 39.434C109.104 40.598 108.006 41.18 106.518 41.18ZM116.605 36.806C115.441 36.53 114.607 36.176 114.103 35.744C113.611 35.3 113.365 34.73 113.365 34.034C113.365 33.242 113.659 32.618 114.247 32.162C114.847 31.694 115.699 31.46 116.803 31.46C117.631 31.46 118.453 31.568 119.269 31.784C119.641 31.88 119.827 32.126 119.827 32.522C119.827 32.666 119.773 32.774 119.665 32.846C119.557 32.918 119.431 32.936 119.287 32.9C118.495 32.66 117.703 32.54 116.911 32.54C115.471 32.54 114.751 33.002 114.751 33.926C114.751 34.334 114.895 34.676 115.183 34.952C115.471 35.216 115.993 35.432 116.749 35.6C118.045 35.888 118.933 36.254 119.413 36.698C119.905 37.142 120.151 37.778 120.151 38.606C120.151 39.41 119.839 40.04 119.215 40.496C118.603 40.952 117.733 41.18 116.605 41.18C115.729 41.18 114.895 41.048 114.103 40.784C113.731 40.664 113.545 40.406 113.545 40.01C113.545 39.878 113.605 39.776 113.725 39.704C113.845 39.62 113.971 39.602 114.103 39.65C114.883 39.95 115.681 40.1 116.497 40.1C118.009 40.1 118.765 39.602 118.765 38.606C118.765 38.174 118.609 37.814 118.297 37.526C117.997 37.238 117.433 36.998 116.605 36.806Z" fill="white"/>
<defs>
<clipPath id="clip0_451_143">
<rect width="42" height="42" fill="white" transform="translate(4 4)"/>
</clipPath>
</defs>
</svg>
