<svg width="21" height="21" viewBox="0 0 21 21" fill="none" xmlns="http://www.w3.org/2000/svg">
<g opacity="0.4">
<path d="M3.29127 10.873L8.9026 16.4843C9.59128 17.173 10.7565 17.173 11.4451 16.4843L17.0565 10.873C18.7782 9.15128 18.7782 6.35986 17.0565 4.63816C15.3348 2.91647 12.5433 2.91647 10.8217 4.63816L10.1739 5.28595L9.52608 4.63816C7.80439 2.91647 5.01297 2.91647 3.29127 4.63816C1.56958 6.35986 1.56958 9.15128 3.29127 10.873Z" fill="white"/>
</g>
<mask id="mask0_463_1122" style="mask-type:alpha" maskUnits="userSpaceOnUse" x="2" y="3" width="17" height="15">
<path d="M3.29127 10.873L8.9026 16.4843C9.59128 17.173 10.7565 17.173 11.4451 16.4843L17.0565 10.873C18.7782 9.15128 18.7782 6.35986 17.0565 4.63816C15.3348 2.91647 12.5433 2.91647 10.8217 4.63816L10.1739 5.28595L9.52608 4.63816C7.80439 2.91647 5.01297 2.91647 3.29127 4.63816C1.56958 6.35986 1.56958 9.15128 3.29127 10.873Z" fill="white"/>
</mask>
<g mask="url(#mask0_463_1122)">
<rect x="0.173889" y="0.173859" width="6.66667" height="20" fill="white"/>
</g>
</svg>
