<svg width="42" height="42" viewBox="0 0 42 42" fill="none" xmlns="http://www.w3.org/2000/svg">
<g clip-path="url(#clip0_438_8)">
<path d="M22.75 5.25C14.0525 5.25 7 12.3025 7 21H1.75L8.5575 27.8075L8.68 28.0525L15.75 21H10.5C10.5 14.2275 15.9775 8.75 22.75 8.75C29.5225 8.75 35 14.2275 35 21C35 27.7725 29.5225 33.25 22.75 33.25C19.3725 33.25 16.31 31.8675 14.105 29.645L11.62 32.13C14.4725 34.9825 18.3925 36.75 22.75 36.75C31.4475 36.75 38.5 29.6975 38.5 21C38.5 12.3025 31.4475 5.25 22.75 5.25ZM21 14V22.75L28.49 27.195L29.75 25.0775L23.625 21.4375V14H21Z" fill="white"/>
</g>
<defs>
<clipPath id="clip0_438_8">
<rect width="42" height="42" fill="white"/>
</clipPath>
</defs>
</svg>
