<svg width="24" height="24" viewBox="0 0 24 24" fill="none" xmlns="http://www.w3.org/2000/svg">
<path d="M4.16309 11.3049C3.95823 12.6023 2.86864 16.569 3.30013 17.0867C3.73161 17.6046 4.40839 17.8896 6.06162 16.7416C9.16827 14.5842 8.82115 13.1813 9.85867 12.4267C10.808 11.7363 11.412 12.3404 12.7065 11.5638C14.0009 10.7871 13.3106 10.3556 14.4324 9.57897C15.5543 8.80225 15.8995 9.14745 18.4884 8.28449C20.5595 7.59411 20.3869 6.73114 20.2143 6.04076C20.0417 5.35039 17.3665 4.48742 15.8995 4.05593C13.9738 3.48956 12.5339 2.76148 11.1532 3.53815C10.0075 4.18257 10.6354 5.0915 9.59979 5.95447C8.56427 6.81743 7.78756 5.78187 6.40681 6.47224C5.02606 7.16262 4.42198 9.66521 4.16309 11.3049Z" fill="white"/>
<path d="M16.4173 18.4675C20.991 15.5334 21.5088 8.62968 21.0774 8.28448C20.6458 7.93928 18.7301 8.4916 17.6254 8.97488C16.2447 9.57896 15.2091 12.1678 13.9147 13.0308C12.6202 13.8938 10.6354 13.5486 8.47801 15.3608C6.75205 16.8106 5.3713 18.2086 5.54389 18.8127C5.71649 19.4168 11.8435 21.4016 16.4173 18.4675Z" fill="white"/>
</svg>
