<svg width="30" height="30" viewBox="0 0 30 30" fill="none" xmlns="http://www.w3.org/2000/svg">
<path d="M5.20392 14.1311C4.94785 15.7529 3.58586 20.7112 4.12522 21.3584C4.66457 22.0057 5.51055 22.362 7.57709 20.927C11.4604 18.2302 11.0265 16.4766 12.3234 15.5334C13.51 14.6704 14.2651 15.4255 15.8832 14.4547C17.5012 13.4838 16.6383 12.9445 18.0406 11.9737C19.4429 11.0028 19.8744 11.4343 23.1105 10.3556C25.6994 9.49262 25.4837 8.41391 25.268 7.55094C25.0522 6.68797 21.7082 5.60926 19.8744 5.0699C17.4673 4.36194 15.6674 3.45184 13.9415 4.42268C12.5094 5.2282 13.2943 6.36436 11.9998 7.44307C10.7054 8.52178 9.73451 7.22732 8.00857 8.09029C6.28264 8.95326 5.52754 12.0815 5.20392 14.1311Z" fill="#f10935"/>
<path d="M20.5216 23.0844C26.2388 19.4168 26.886 10.7871 26.3467 10.3556C25.8073 9.9241 23.4126 10.6145 22.0318 11.2186C20.3059 11.9737 19.0114 15.2098 17.3934 16.2885C15.7753 17.3672 13.2943 16.9357 10.5975 19.201C8.44006 21.0132 6.71412 22.7608 6.92986 23.5159C7.14561 24.271 14.8044 26.752 20.5216 23.0844Z" fill="#f10935"/>
</svg>
