<svg width="42" height="42" viewBox="0 0 42 42" fill="none" xmlns="http://www.w3.org/2000/svg">
<g clip-path="url(#clip0_438_4)">
<path d="M33.495 22.645C33.565 22.12 33.6 21.5775 33.6 21C33.6 20.44 33.565 19.88 33.4775 19.355L37.03 16.59C37.345 16.345 37.4325 15.8725 37.24 15.5225L33.88 9.71251C33.67 9.32751 33.2325 9.20501 32.8475 9.32751L28.665 11.0075C27.79 10.3425 26.8625 9.78251 25.83 9.36251L25.2 4.91751C25.13 4.49751 24.78 4.20001 24.36 4.20001H17.64C17.22 4.20001 16.8875 4.49751 16.8175 4.91751L16.1875 9.36251C15.155 9.78251 14.21 10.36 13.3525 11.0075L9.17001 9.32751C8.78501 9.18751 8.34751 9.32751 8.13751 9.71251L4.79501 15.5225C4.58501 15.89 4.65501 16.345 5.00501 16.59L8.55751 19.355C8.47001 19.88 8.40001 20.4575 8.40001 21C8.40001 21.5425 8.43501 22.12 8.52251 22.645L4.97001 25.41C4.65501 25.655 4.56751 26.1275 4.76001 26.4775L8.12001 32.2875C8.33001 32.6725 8.76751 32.795 9.15251 32.6725L13.335 30.9925C14.21 31.6575 15.1375 32.2175 16.17 32.6375L16.8 37.0825C16.8875 37.5025 17.22 37.8 17.64 37.8H24.36C24.78 37.8 25.13 37.5025 25.1825 37.0825L25.8125 32.6375C26.845 32.2175 27.79 31.6575 28.6475 30.9925L32.83 32.6725C33.215 32.8125 33.6525 32.6725 33.8625 32.2875L37.2225 26.4775C37.4325 26.0925 37.345 25.655 37.0125 25.41L33.495 22.645ZM21 27.3C17.535 27.3 14.7 24.465 14.7 21C14.7 17.535 17.535 14.7 21 14.7C24.465 14.7 27.3 17.535 27.3 21C27.3 24.465 24.465 27.3 21 27.3Z" fill="white"/>
</g>
<defs>
<clipPath id="clip0_438_4">
<rect width="42" height="42" fill="white"/>
</clipPath>
</defs>
</svg>
