<svg width="43" height="42" viewBox="0 0 43 42" fill="none" xmlns="http://www.w3.org/2000/svg">
<g clip-path="url(#clip0_488_290)">
<path d="M35.8325 7H7.5C5.575 7 4.0175 8.575 4.0175 10.5V17.5C5.9425 17.5 7.5 19.075 7.5 21C7.5 22.925 5.9425 24.5 4 24.5V31.5C4 33.425 5.575 35 7.5 35H35.5C37.425 35 39 33.425 39 31.5V10.5C39 8.575 37.5825 7 35.8325 7ZM31.5275 23.275L16.0225 27.405L13.1175 22.365L14.745 21.9275L16.95 23.66L21.1325 22.54L16.9325 15.26L19.3825 14.595L26.4 21.14L30.67 20.0025C31.5625 19.7575 32.49 20.3 32.735 21.1925C32.9625 22.085 32.4375 23.0125 31.5275 23.275Z" fill="white"/>
</g>
<defs>
<clipPath id="clip0_488_290">
<rect width="42" height="42" fill="white" transform="translate(0.5)"/>
</clipPath>
</defs>
</svg>
