<svg width="30" height="30" viewBox="0 0 30 30" fill="none" xmlns="http://www.w3.org/2000/svg">
<g clip-path="url(#clip0)">
<path d="M8.06654 21.2769C8.25914 20.3029 7.52449 19.2173 6.89575 18.5018C5.13711 16.3897 3.40684 15.4475 2.19361 16.148L2.11272 16.1947C0.899486 16.8951 0.850335 18.8647 1.75345 21.3629C2.05866 22.2651 2.58485 23.3633 3.5713 23.7643C4.2559 24.0162 5.12394 23.8385 6.17541 23.2315C7.35446 22.6586 7.94231 21.9956 8.06654 21.2769Z" fill="#f10935"/>
<path d="M13.5116 21.3685C14.8057 20.6213 15.5553 19.865 15.7012 18.8102C15.9622 17.5811 15.3301 16.1127 14.0134 14.3925C11.5668 11.2756 9.01187 9.83893 7.47511 10.7262C7.47511 10.7262 7.47511 10.7262 7.39422 10.7729C5.85746 11.6601 5.82417 14.5911 7.25347 18.1875C8.00399 20.2346 9.04049 21.4695 10.2354 21.858C11.2686 22.34 12.3451 22.1498 13.5116 21.3685Z" fill="#f10935"/>
<path d="M23.0274 14.6883C23.2884 13.4592 22.6563 11.9908 21.3396 10.2706C18.7654 7.11951 16.2572 5.76372 14.7204 6.65097C14.7204 6.65097 14.7204 6.65097 14.6395 6.69767C13.1028 7.58492 13.0695 10.5159 14.4988 14.1123C15.2493 16.1594 16.2858 17.3943 17.4807 17.7828C18.4205 18.103 19.5778 17.8662 20.7911 17.1657C22.051 16.5461 22.7539 15.7089 23.0274 14.6883Z" fill="#f10935"/>
<path d="M27.9211 9.81388C28.1137 8.83994 27.379 7.75428 26.7503 7.03885C24.9917 4.92675 23.1805 4.03123 22.0482 4.685C20.8349 5.38546 20.6582 7.32083 21.608 9.89991C21.9132 10.8021 22.4394 11.9003 23.4259 12.3014C24.1105 12.5532 24.9785 12.3755 26.03 11.7685C27.209 11.1956 27.7969 10.5327 27.9211 9.81388Z" fill="#f10935"/>
<path d="M9.5489 27.4309C10.407 27.3793 8.62219 21.675 7.9787 20.2492L2.80763 23.2347C3.27458 24.0435 7.79672 27.536 9.5489 27.4309Z" fill="#f10935"/>
<path d="M28.0782 16.733C27.6045 17.4504 23.5568 13.0525 22.6437 11.7823L27.8148 8.7968C28.2818 9.60562 29.0453 15.2682 28.0782 16.733Z" fill="#f10935"/>
</g>
<defs>
<clipPath id="clip0">
<rect width="30" height="30" fill="white"/>
</clipPath>
</defs>
</svg>
