<svg width="1126" height="500" viewBox="0 0 1126 500" fill="none" xmlns="http://www.w3.org/2000/svg">
<path fill-rule="evenodd" clip-rule="evenodd" d="M905 0H0V254.027C2.03231 253.813 4.30561 252.627 7.7596 250.727L7.8225 250.692C11.7436 248.535 17.1353 245.569 23.6417 246.626C27.2472 247.212 30.0058 249.141 32.1085 251.265C34.1712 253.349 35.8098 255.838 37.1098 257.851L37.3163 258.17L37.3164 258.17C38.6346 260.212 39.5031 261.557 40.3241 262.385C40.3735 262.434 40.4184 262.478 40.459 262.515C41.5537 262.022 42.8599 261.281 44.4963 260.319C44.7151 260.19 44.9387 260.058 45.1669 259.923L45.1677 259.923C46.8013 258.96 48.6668 257.859 50.6219 256.863C55.0316 254.617 60.6238 252.504 66.6745 253.539C68.8614 253.913 70.69 255.078 72.1469 256.375C73.618 257.684 74.9361 259.33 76.1131 261.062C78.4616 264.518 80.5925 268.841 82.4471 272.877C83.2147 274.547 83.923 276.139 84.5882 277.635C85.5982 279.906 86.5086 281.952 87.3756 283.708C87.8696 284.709 88.29 285.488 88.6403 286.063C88.8909 285.956 89.1706 285.817 89.4745 285.641C90.5737 285.006 91.928 283.919 93.2924 282.182C96.0064 278.729 98.8025 272.639 99.5097 262.486C100.721 245.09 105.377 210.303 107.54 195.157L113.192 155.59L115.493 195.492L123.912 341.441C124.349 339.025 124.802 336.568 125.27 334.099C127.351 323.106 129.722 311.8 132.142 302.737C133.349 298.213 134.592 294.16 135.845 290.949C136.471 289.346 137.129 287.879 137.822 286.638C138.482 285.456 139.323 284.205 140.41 283.281C144.177 280.081 148.03 277.336 151.227 275.058L151.229 275.057C152.749 273.974 154.121 272.996 155.265 272.126C157.17 270.676 158.507 269.495 159.381 268.426C160.22 267.402 160.468 266.683 160.512 266.114C160.68 263.93 161.586 260.592 162.834 257.091C164.121 253.479 165.908 249.32 168.054 245.402C170.179 241.524 172.77 237.672 175.729 234.845C178.616 232.088 182.525 229.691 187.085 230.365C194.403 231.446 198.617 236.733 201.219 240.962C202.064 242.334 202.886 243.859 203.557 245.102L203.557 245.103C203.875 245.693 204.159 246.219 204.395 246.636C204.819 247.386 205.133 247.878 205.376 248.191C205.411 248.235 205.44 248.272 205.465 248.3C206.629 248.881 207.944 249.766 209.098 250.552C209.365 250.735 209.633 250.918 209.901 251.102L209.907 251.106L209.907 251.106C211.007 251.861 212.113 252.619 213.248 253.33C214.667 254.219 215.934 254.905 217 255.305C217.956 255.664 218.382 255.651 218.453 255.649C218.46 255.649 218.464 255.649 218.464 255.649C218.464 255.65 218.461 255.651 218.455 255.652L218.454 255.652C219.408 255.394 220.153 255.137 220.911 254.876L220.97 254.856L220.997 254.846C221.738 254.591 222.624 254.285 223.608 254.077C225.79 253.614 228.018 253.709 231.296 254.374C232.667 254.653 233.94 254.948 235.189 255.238L235.189 255.238C237.064 255.674 238.885 256.096 240.903 256.43C244.092 256.958 246.787 257.052 248.954 256.465C250.101 256.154 251.367 255.747 252.807 255.284L253.169 255.168C253.354 255.108 253.543 255.047 253.734 254.986C255.507 254.419 257.476 253.806 259.448 253.337C263.1 252.467 268.008 251.747 271.978 254.005C273.079 254.632 274.103 255.548 274.973 256.427C275.884 257.348 276.827 258.435 277.762 259.579C279.442 261.636 281.251 264.073 282.969 266.386C283.155 266.637 283.339 266.886 283.523 267.133C285.449 269.724 287.214 272.069 288.693 273.764C289.246 274.397 289.699 274.87 290.056 275.202C290.225 275.129 290.435 275.031 290.691 274.901C291.332 274.574 291.95 274.216 292.699 273.783C293.184 273.502 293.723 273.19 294.359 272.834C297.296 271.19 301.34 269.178 306.297 268.927C311.809 268.647 315.985 271.82 318.627 273.828L318.855 274.001C320.37 275.15 321.336 275.868 322.197 276.274C322.864 276.588 323.044 276.512 323.104 276.487L323.114 276.483C323.554 276.321 324.204 275.875 325.119 274.807C325.902 273.893 326.63 272.834 327.493 271.579C327.578 271.455 327.664 271.329 327.752 271.202C327.82 271.103 327.889 271.003 327.959 270.902C328.941 269.481 330.162 267.755 331.613 266.399C333.105 265.005 335.224 263.64 338 263.64C339.517 263.64 340.883 264.119 341.971 264.64C343.081 265.172 344.158 265.875 345.153 266.592C346.389 267.484 347.796 268.629 349.154 269.735L349.156 269.736L349.158 269.738C349.872 270.319 350.572 270.889 351.227 271.406C353.3 273.041 355.266 274.438 357.162 275.343C359.043 276.242 360.552 276.51 361.826 276.292C365.056 275.74 367.508 273.513 370.033 270.435C370.437 269.942 370.905 269.346 371.391 268.727L371.391 268.727C372.176 267.728 373.008 266.668 373.697 265.883C374.84 264.582 376.582 262.796 378.954 262.153C381.626 261.43 384.222 262.487 385.879 263.345C387.726 264.301 389.571 265.644 391.147 266.872C391.95 267.498 392.727 268.129 393.43 268.703L393.571 268.818L393.573 268.819C394.095 269.245 394.567 269.629 395 269.973C395.841 268.77 396.858 267.02 397.858 264.818C400.051 259.987 402 253.34 402 246.105C402 239.543 403.524 220.727 405.015 203.822C405.766 195.31 406.517 187.196 407.08 181.211C407.362 178.218 407.596 175.757 407.76 174.043C407.804 173.591 407.842 173.192 407.875 172.848C407.905 172.54 407.93 172.276 407.951 172.061L408.001 171.541L408.014 171.408L408.018 171.374L408.018 171.366L408.019 171.363C408.019 171.363 408.019 171.363 408.637 171.423L408.019 171.363L413.011 120.046L415.993 171.519L423.876 307.571C425.171 298.151 426.616 288.7 428.105 280.907C428.944 276.516 429.81 272.583 430.688 269.449C431.126 267.884 431.584 266.459 432.064 265.248C432.52 264.1 433.096 262.881 433.858 261.914C438.965 255.43 446.121 254.322 451.434 253.901C452.464 253.819 453.375 253.764 454.204 253.714C455.723 253.622 456.967 253.547 458.16 253.355C459.952 253.066 460.279 252.671 460.311 252.629C461.978 250.428 464.069 247.411 466.419 244.018L466.489 243.917C468.795 240.586 471.321 236.94 473.809 233.555C476.308 230.155 478.855 226.902 481.185 224.44C482.346 223.214 483.545 222.085 484.736 221.22C485.825 220.428 487.385 219.497 489.205 219.362C492.112 219.148 494.659 220.633 496.483 222.145C498.415 223.747 500.19 225.915 501.685 228.261C504.63 232.879 507 239.007 507 244.48C507 247.63 508.993 252.132 512.217 256.062C513.772 257.957 515.459 259.524 517.041 260.585C518.689 261.69 519.872 262.014 520.5 262.014C520.857 262.014 521.218 261.922 521.823 261.287C522.542 260.532 523.222 259.405 524.129 257.773C524.196 257.653 524.265 257.528 524.336 257.399L524.352 257.37C525.113 255.992 526.096 254.213 527.291 252.802C528.695 251.144 530.866 249.419 534 249.419C536.981 249.419 539.266 250.994 540.839 252.47C542.412 253.947 543.797 255.831 544.911 257.349L544.937 257.383C546.149 259.035 547.078 260.299 547.991 261.201C548.638 261.84 548.973 261.985 549.052 262.014C549.631 261.998 550.818 261.721 552.738 260.966C554.601 260.232 556.689 259.242 558.906 258.187L559.065 258.111C561.167 257.111 563.399 256.048 565.397 255.263C567.241 254.539 569.682 253.708 571.86 253.904C573.755 254.075 575.224 255.203 576.061 255.936C577.035 256.787 577.988 257.867 578.877 258.968C580.235 260.649 581.729 262.746 583.193 264.8L583.194 264.801C583.632 265.416 584.068 266.028 584.496 266.623C586.44 269.323 588.283 271.763 589.971 273.492C590.812 274.353 591.49 274.905 591.997 275.214C592.056 275.251 592.11 275.281 592.157 275.307C592.245 275.355 592.312 275.386 592.36 275.406C592.393 275.398 592.433 275.387 592.48 275.373C592.516 275.362 592.556 275.35 592.601 275.335C592.879 275.244 593.246 275.094 593.716 274.865C594.667 274.403 595.822 273.727 597.206 272.856C598.122 272.28 599.162 271.601 600.276 270.874L600.277 270.873C602.329 269.534 604.636 268.028 606.897 266.688C610.469 264.57 614.491 262.502 618.559 261.44C622.657 260.369 627.201 260.22 631.405 262.497C634.828 264.352 637.053 266.343 638.514 268.481C639.866 270.462 640.394 272.354 640.723 273.535L640.756 273.653L640.787 273.766C640.98 274.449 641.092 274.728 641.137 274.825C641.29 274.915 642.024 275.273 644.282 275.433C645.789 275.539 647.628 274.914 650.081 273.152C652.508 271.408 654.979 268.971 657.798 266.192L657.879 266.112C660.617 263.412 663.675 260.404 666.933 258.101C670.204 255.789 674.078 253.888 678.5 253.888C682.981 253.888 686.313 255.714 688.707 258.373C690.944 260.858 692.281 263.981 693.243 266.534C693.596 267.471 693.892 268.304 694.159 269.053L694.159 269.054C694.713 270.611 695.136 271.802 695.671 272.807C695.786 273.022 695.884 273.184 695.964 273.303C696.519 273.092 697.436 272.551 698.677 271.308C700.236 269.746 701.927 267.455 703.602 264.567C706.945 258.799 709.927 251.164 711.594 243.617C714.379 231.007 721.734 193.231 725.072 175.87L730.869 145.72L732.99 176.349L743.55 328.827C744.317 322.545 745.045 316.12 745.75 309.845L745.935 308.196C746.945 299.209 747.911 290.611 748.883 283.385C749.899 275.829 750.965 269.408 752.193 265.6C753.456 261.68 757.177 255.65 760.846 250.802C762.725 248.319 764.736 245.952 766.612 244.162C767.545 243.273 768.535 242.439 769.534 241.802C770.417 241.238 771.833 240.48 773.5 240.48C776.264 240.48 778.3 242.26 779.504 243.575C780.841 245.035 782.052 246.924 783.127 248.828C784.701 251.617 786.273 254.986 787.677 257.996C788.177 259.068 788.656 260.095 789.107 261.034C791.033 265.05 793.575 271.149 795.607 276.166C796.263 277.786 796.871 279.304 797.393 280.62C798.754 278.481 800.241 275.531 801.754 272.322C802.345 271.071 802.945 269.766 803.535 268.484L803.537 268.48L803.539 268.475C804.576 266.223 805.582 264.039 806.447 262.327C807.121 260.994 807.849 259.66 808.576 258.683C808.904 258.242 809.486 257.518 810.32 256.986C810.766 256.702 811.504 256.331 812.473 256.262C813.549 256.185 814.587 256.509 815.417 257.139C818.394 259.397 823.5 261.091 829.071 262.075C834.57 263.047 839.773 263.199 842.504 262.858C844.528 262.605 846.96 262.449 849.232 262.304C850.619 262.216 851.947 262.131 853.084 262.03C856.602 261.718 858.82 261.236 859.918 260.567C859.907 260.574 859.911 260.57 859.928 260.551C860.012 260.459 860.407 260.026 861.018 258.781C861.597 257.6 862.13 256.214 862.735 254.644C862.828 254.402 862.922 254.156 863.019 253.906C863.686 252.181 864.493 250.144 865.474 248.532C866.29 247.194 868.17 244.543 871.5 244.543C873.469 244.543 874.953 245.625 875.741 246.292C876.646 247.058 877.488 248.03 878.232 248.97C879.249 250.257 880.383 251.887 881.486 253.472L881.489 253.477C881.964 254.159 882.433 254.833 882.885 255.469C884.501 257.742 886.021 259.71 887.452 261.05C888.813 262.323 889.458 262.43 889.54 262.444C889.546 262.445 889.549 262.445 889.549 262.446C889.549 262.446 889.547 262.446 889.542 262.447L889.539 262.447C889.981 262.396 890.561 262.181 891.522 261.495C892.19 261.017 892.753 260.542 893.447 259.955L893.45 259.953C893.914 259.56 894.438 259.118 895.092 258.592C897.49 256.661 900.604 254.54 905 253.776V0ZM905 261.989C903.136 262.571 901.624 263.603 900.108 264.823C899.776 265.09 899.39 265.415 898.975 265.763C898.087 266.509 897.068 267.364 896.172 268.004C894.701 269.055 892.82 270.12 890.461 270.394C886.86 270.812 883.916 268.697 881.985 266.89C879.916 264.954 877.999 262.402 876.365 260.104C875.786 259.29 875.248 258.517 874.741 257.788L874.739 257.784C873.718 256.315 872.82 255.024 871.956 253.931C871.922 253.888 871.889 253.846 871.856 253.805C871.827 253.769 871.799 253.734 871.771 253.7C871.38 254.515 870.963 255.545 870.481 256.791C870.395 257.014 870.307 257.243 870.217 257.477L870.216 257.478C869.627 259.013 868.95 260.775 868.201 262.303C867.409 263.917 866.146 266.14 864.082 267.398C861.18 269.167 857.148 269.701 853.791 269.999C852.176 270.142 850.682 270.234 849.254 270.322L849.252 270.322C847.254 270.445 845.385 270.56 843.496 270.796C839.727 271.267 833.68 271.013 827.679 269.953C823.033 269.133 817.948 267.75 813.789 265.54C813.754 265.608 813.718 265.677 813.682 265.748C813.651 265.809 813.619 265.872 813.587 265.936C812.779 267.535 811.891 269.465 810.91 271.596L810.908 271.601L810.901 271.617C810.299 272.924 809.664 274.307 808.99 275.735C807.292 279.334 805.372 283.178 803.457 285.951C802.526 287.298 801.373 288.728 800.002 289.695C798.562 290.711 796.064 291.695 793.485 290.192L792.275 289.486L791.77 288.18L793.149 287.646C791.77 288.18 791.77 288.18 791.77 288.18L791.769 288.178L791.766 288.17L791.753 288.136L791.7 288.001C791.654 287.882 791.586 287.706 791.497 287.479C791.402 287.236 791.284 286.934 791.146 286.581C791.025 286.274 790.89 285.93 790.741 285.551C790.098 283.92 789.203 281.665 788.192 279.169C786.157 274.145 783.699 268.258 781.893 264.494C781.358 263.378 780.826 262.236 780.293 261.095C778.932 258.177 777.57 255.258 776.16 252.76C775.187 251.036 774.327 249.768 773.604 248.977C773.549 248.918 773.498 248.864 773.451 248.815C773.096 249.081 772.655 249.455 772.133 249.952C770.681 251.337 768.96 253.338 767.225 255.629C763.668 260.329 760.639 265.473 759.807 268.054C758.835 271.072 757.843 276.783 756.811 284.452C755.853 291.577 754.898 300.079 753.885 309.088L753.884 309.104L753.7 310.739C751.551 329.855 749.128 351.08 745.9 365.231L739.88 391.623L738.01 364.618L727.114 207.287C724.126 222.495 721.018 238.045 719.406 245.342C717.573 253.642 714.305 262.056 710.523 268.579C708.635 271.836 706.545 274.751 704.338 276.961C702.218 279.084 699.543 281.007 696.461 281.364C694.518 281.59 692.765 281.048 691.347 279.968C690.062 278.989 689.207 277.688 688.61 276.566C687.78 275.008 687.041 272.931 686.392 271.108L686.391 271.106C686.169 270.482 685.958 269.888 685.757 269.354C684.844 266.93 683.931 265.025 682.762 263.726C681.75 262.602 680.519 261.888 678.5 261.888C676.422 261.888 674.171 262.781 671.551 264.633C668.919 266.494 666.321 269.023 663.496 271.808L663.174 272.126C660.551 274.714 657.691 277.535 654.747 279.649C651.685 281.849 647.961 283.712 643.718 283.413C640.616 283.193 637.981 282.587 636.035 280.993C634.051 279.367 633.447 277.216 633.117 276.042L633.088 275.937L633.075 275.893C632.721 274.637 632.504 273.866 631.908 272.994C631.322 272.136 630.172 270.927 627.595 269.531C625.799 268.558 623.53 268.409 620.581 269.18C617.602 269.958 614.344 271.573 610.978 273.569C608.825 274.846 606.848 276.138 604.92 277.398C603.76 278.156 602.618 278.903 601.466 279.628C600.014 280.541 598.564 281.404 597.212 282.061C595.939 282.68 594.364 283.314 592.75 283.415C590.808 283.536 589.114 282.826 587.835 282.047C586.534 281.254 585.328 280.188 584.248 279.081C582.092 276.873 579.935 273.981 578.004 271.297C577.509 270.609 577.03 269.937 576.565 269.285C575.137 267.281 573.845 265.47 572.654 263.995C571.871 263.026 571.255 262.36 570.794 261.958L570.761 261.929C570.669 261.947 570.559 261.971 570.431 262.003C569.881 262.139 569.181 262.372 568.322 262.709C566.589 263.39 564.571 264.35 562.344 265.411C560.186 266.438 557.837 267.556 555.669 268.409C553.616 269.217 551.192 270.014 549 270.014C546.032 270.014 543.812 268.317 542.369 266.892C540.99 265.53 539.721 263.799 538.672 262.368L538.671 262.368L538.464 262.084C537.266 260.453 536.307 259.188 535.364 258.303C534.421 257.418 534.019 257.419 534 257.419C533.995 257.419 534.011 257.409 533.972 257.431C533.894 257.475 533.7 257.613 533.396 257.972C532.739 258.748 532.132 259.84 531.234 261.457L531.121 261.66C530.278 263.176 529.145 265.199 527.615 266.805C525.969 268.532 523.643 270.014 520.5 270.014C517.628 270.014 514.873 268.764 512.584 267.229C510.228 265.648 507.978 263.507 506.033 261.136C502.257 256.534 499 250.269 499 244.48C499 241.014 497.37 236.374 494.94 232.562C493.748 230.692 492.492 229.228 491.376 228.303C490.615 227.672 490.128 227.458 489.906 227.384C489.802 227.443 489.647 227.54 489.439 227.691C488.807 228.15 487.989 228.89 486.995 229.94C485.015 232.032 482.703 234.963 480.255 238.293C477.834 241.586 475.363 245.155 473.036 248.515L473.034 248.518L472.996 248.572C470.682 251.914 468.481 255.092 466.689 257.459C464.721 260.058 461.735 260.882 459.434 261.253C457.848 261.509 455.935 261.626 454.17 261.735L454.169 261.735C453.43 261.78 452.718 261.824 452.066 261.876C447.129 262.267 443.035 263.191 440.142 266.864L440.142 266.864C440.136 266.873 440.066 266.969 439.944 267.203C439.82 267.443 439.67 267.77 439.501 268.198C439.159 269.058 438.787 270.195 438.391 271.607C437.601 274.429 436.784 278.114 435.963 282.408C434.325 290.984 432.724 301.716 431.315 312.254C429.907 322.781 428.698 333.061 427.841 340.713C427.412 344.538 427.072 347.704 426.838 349.912C426.796 350.314 426.757 350.685 426.722 351.021C426.66 351.609 426.61 352.095 426.571 352.469C426.541 352.763 426.518 352.988 426.503 353.139L426.486 353.31L426.481 353.352L426.48 353.363L426.48 353.365C426.48 353.366 426.48 353.366 422.5 352.965L426.48 353.366L421.425 403.568L418.507 353.196L411.159 226.377C410.474 235.247 410 242.641 410 246.105C410 254.716 407.699 262.493 405.142 268.125C403.863 270.942 402.48 273.312 401.207 275.043C400.579 275.897 399.908 276.692 399.221 277.319C398.879 277.631 398.449 277.979 397.943 278.27C397.499 278.526 396.631 278.953 395.5 278.953C394.609 278.953 393.888 278.691 393.5 278.529C393.061 278.345 392.665 278.121 392.344 277.923C391.704 277.528 391.03 277.025 390.406 276.538C389.815 276.077 389.172 275.553 388.533 275.032L388.532 275.031L388.377 274.904C387.672 274.33 386.956 273.749 386.228 273.181C384.741 272.022 383.368 271.054 382.2 270.449C381.53 270.102 381.138 269.986 380.963 269.943C380.787 270.069 380.384 270.392 379.709 271.161C379.096 271.859 378.57 272.534 377.954 273.325L377.954 273.326C377.462 273.957 376.913 274.662 376.217 275.509C373.492 278.831 369.444 283.105 363.174 284.178C359.698 284.773 356.457 283.873 353.713 282.562C350.984 281.258 348.45 279.404 346.273 277.688C345.371 276.976 344.563 276.317 343.811 275.703L343.81 275.703C342.604 274.719 341.543 273.852 340.472 273.08C339.654 272.49 339.013 272.094 338.513 271.855C338.192 271.7 338.018 271.655 337.965 271.642C337.935 271.647 337.887 271.66 337.808 271.698C337.661 271.77 337.418 271.924 337.075 272.244C336.338 272.933 335.559 273.975 334.541 275.449C334.409 275.64 334.273 275.839 334.132 276.044L334.132 276.045C333.285 277.28 332.28 278.745 331.193 280.013C329.921 281.498 328.196 283.134 325.886 283.987C323.185 284.985 320.72 284.421 318.787 283.511C317.104 282.718 315.502 281.5 314.235 280.538L314.02 280.375C311.022 278.101 309.03 276.798 306.703 276.916C303.66 277.071 300.954 278.31 298.266 279.815C297.867 280.038 297.431 280.29 296.981 280.55L296.98 280.55C296.081 281.068 295.131 281.616 294.325 282.027C293.129 282.637 291.396 283.423 289.5 283.423C288.409 283.423 287.515 283.065 286.934 282.767C286.324 282.454 285.783 282.063 285.331 281.693C284.429 280.957 283.522 280.005 282.666 279.025C280.943 277.05 278.989 274.443 277.102 271.905L276.558 271.172L276.557 271.171C274.815 268.825 273.121 266.544 271.566 264.64C270.712 263.594 269.948 262.723 269.287 262.055C268.585 261.346 268.171 261.043 268.022 260.959C266.992 260.373 264.9 260.262 261.302 261.119C259.649 261.513 257.93 262.043 256.172 262.606C255.89 262.696 255.604 262.788 255.317 262.88L255.314 262.881C253.874 263.345 252.39 263.823 251.046 264.187C247.213 265.225 243.158 264.912 239.597 264.323C237.426 263.964 235.03 263.413 232.913 262.927C231.726 262.654 230.627 262.402 229.704 262.214C226.982 261.661 225.96 261.756 225.267 261.903C224.825 261.996 224.378 262.143 223.577 262.419L223.481 262.452C222.727 262.712 221.765 263.044 220.546 263.374C218.218 264.005 215.914 263.443 214.188 262.795C212.379 262.116 210.583 261.1 209.002 260.11C207.711 259.301 206.432 258.424 205.324 257.664C205.07 257.489 204.824 257.321 204.59 257.161C203.212 256.221 202.336 255.663 201.815 255.421C200.52 254.82 199.624 253.828 199.055 253.095C198.449 252.313 197.907 251.414 197.433 250.577C197.034 249.872 196.676 249.206 196.322 248.546C195.732 247.446 195.151 246.365 194.406 245.154C192.133 241.459 189.597 238.823 185.915 238.279C184.975 238.14 183.446 238.537 181.255 240.63C179.136 242.654 177.008 245.709 175.071 249.246C173.155 252.743 171.535 256.507 170.369 259.777C169.164 263.158 168.57 265.66 168.488 266.727C168.282 269.409 167.093 271.635 165.572 273.494C164.087 275.307 162.143 276.945 160.11 278.492C158.599 279.641 157.036 280.752 155.41 281.908L155.409 281.908C152.38 284.061 149.13 286.37 145.59 289.378L145.593 289.376C145.593 289.376 145.517 289.446 145.375 289.637C145.222 289.843 145.031 290.137 144.806 290.539C144.354 291.349 143.846 292.453 143.297 293.86C142.199 296.671 141.045 300.402 139.871 304.8C137.528 313.579 135.199 324.66 133.13 335.588C131.064 346.499 129.271 357.186 127.993 365.151C127.355 369.131 126.845 372.428 126.496 374.729C126.321 375.879 126.187 376.78 126.096 377.393C126.05 377.699 126.016 377.933 125.993 378.09L125.967 378.267L125.96 378.311L125.959 378.322L125.958 378.325C125.958 378.325 125.958 378.325 122 377.75L125.958 378.325L120.28 417.395L118.007 377.98L109.959 238.459C108.861 247.813 107.935 256.651 107.49 263.042C106.698 274.423 103.494 282.148 99.5826 287.125C95.7941 291.947 91.1213 294.393 87.5 294.393C85.9382 294.393 84.7928 293.646 84.1713 293.137C83.5124 292.599 82.9833 291.953 82.5746 291.387C81.7507 290.246 80.9532 288.77 80.2025 287.25C79.2805 285.383 78.2419 283.051 77.1666 280.637L77.1665 280.636C76.5112 279.165 75.8423 277.663 75.1779 276.217C73.345 272.228 71.4446 268.425 69.4963 265.558C68.5248 264.128 67.6281 263.063 66.8277 262.35C66.0131 261.625 65.5136 261.457 65.3255 261.424C61.8762 260.834 58.2184 261.972 54.2531 263.992C52.534 264.867 50.8938 265.834 49.2427 266.808L49.2424 266.808C49.012 266.944 48.7815 267.079 48.5505 267.215C46.7531 268.272 44.8194 269.389 43.0057 270.126C41.3849 270.785 39.6977 270.836 38.1036 270.293C36.6324 269.792 35.492 268.873 34.6446 268.019C33.1963 266.559 31.8668 264.489 30.7472 262.746L30.7361 262.729C30.6184 262.546 30.5031 262.367 30.3902 262.192C29.0652 260.141 27.8288 258.313 26.4228 256.893C25.0567 255.513 23.7528 254.749 22.3583 254.523C18.8996 253.961 15.8141 255.426 11.6154 257.736C11.3968 257.856 11.1725 257.981 10.9427 258.108L10.9313 258.115C8.03363 259.723 4.2609 261.818 0 262.036V500H905V261.989ZM205.551 248.395C205.552 248.395 205.549 248.392 205.543 248.387C205.549 248.392 205.551 248.394 205.551 248.395ZM570.441 261.684C570.438 261.683 570.436 261.682 570.437 261.682C570.437 261.683 570.439 261.684 570.444 261.687C570.448 261.689 570.454 261.693 570.462 261.697C570.452 261.691 570.445 261.686 570.441 261.684ZM774.105 248.392C774.124 248.385 774.133 248.381 774.133 248.38C774.133 248.38 774.13 248.381 774.123 248.384C774.119 248.386 774.113 248.388 774.105 248.392ZM815.071 263.363C815.07 263.365 815.061 263.376 815.046 263.392C815.065 263.368 815.074 263.359 815.071 263.363ZM872.698 252.151C872.711 252.139 872.717 252.131 872.717 252.129C872.716 252.126 872.696 252.143 872.656 252.19C872.674 252.174 872.688 252.161 872.698 252.151ZM870.461 252.309C870.422 252.287 870.403 252.272 870.404 252.271C870.405 252.27 870.424 252.281 870.461 252.309ZM641.157 274.864C641.159 274.867 641.16 274.869 641.16 274.869C641.16 274.869 641.158 274.864 641.152 274.856C641.154 274.859 641.156 274.862 641.157 274.864Z" fill="#E33050"/>
<g opacity="0.6">
<rect width="905" height="2" fill="white"/>
<rect y="38.3076" width="905" height="2" fill="white"/>
<rect y="76.6155" width="905" height="2" fill="white"/>
<rect y="114.923" width="905" height="2" fill="white"/>
<rect y="153.231" width="905" height="2" fill="white"/>
<rect y="191.539" width="905" height="2" fill="white"/>
<rect y="229.846" width="905" height="2" fill="white"/>
<rect y="268.154" width="905" height="2" fill="white"/>
<rect y="306.461" width="905" height="2" fill="white"/>
<rect y="344.769" width="905" height="2" fill="white"/>
<rect y="383.077" width="905" height="2" fill="white"/>
<rect y="421.385" width="905" height="2" fill="white"/>
<rect y="459.692" width="905" height="2" fill="white"/>
<rect y="498" width="905" height="2" fill="white"/>
</g>
</svg>
