<svg width="1126" height="500" viewBox="0 0 1126 500" fill="none" xmlns="http://www.w3.org/2000/svg">
<path fill-rule="evenodd" clip-rule="evenodd" d="M905 0H0V254.797C2.65538 254.694 5.32182 253.996 8.62084 253.133L8.67484 253.119C12.7343 252.057 17.5695 250.817 23.3083 251.261C29.4811 251.738 33.3712 254.497 36.1218 256.522C39.1653 258.763 39.7845 259.045 40.7409 258.86C42.0566 258.606 43.5926 258.191 45.4461 257.673C45.648 257.616 45.8531 257.559 46.0613 257.5L46.1208 257.484L46.1217 257.483C47.7589 257.024 49.584 256.512 51.4954 256.049C55.8563 254.992 60.9582 254.111 66.3245 254.548C69.6777 254.821 72.6403 256.31 75.0987 258.031C77.5682 259.76 79.797 261.915 81.6895 263.874C82.5196 264.734 83.2473 265.513 83.9139 266.226L83.9167 266.229C84.8863 267.267 85.7265 268.166 86.5642 268.973C87.1929 269.579 87.6479 269.958 87.9624 270.173C89.4037 270.066 91.9789 269.485 94.3659 268.04C96.9092 266.5 99.0038 264.146 99.5422 260.468C100.792 251.934 105.517 235.171 107.669 228.004L113.169 209.686L115.471 228.673L123.878 298.006C124.39 296.647 124.927 295.258 125.483 293.859C127.584 288.581 130.01 283.067 132.518 278.598C133.77 276.366 135.098 274.293 136.479 272.611C137.794 271.009 139.466 269.373 141.501 268.55C145.247 267.036 149.032 265.754 152.214 264.675L152.214 264.675C153.749 264.155 155.143 263.683 156.326 263.255C158.275 262.549 159.622 261.98 160.467 261.489C160.51 261.463 160.551 261.439 160.588 261.416C160.648 261.38 160.7 261.347 160.746 261.317C160.977 260.552 161.324 259.845 161.632 259.285C162.1 258.435 162.704 257.519 163.4 256.589C164.795 254.728 166.692 252.634 168.94 250.682C173.294 246.902 179.7 243.029 186.78 243.527C193.207 243.979 197.316 246.233 200.259 248.509C201.143 249.192 202.081 250.018 202.769 250.625C203.061 250.882 203.308 251.1 203.488 251.251C204.074 251.743 204.339 251.893 204.4 251.927C204.406 251.93 204.41 251.933 204.412 251.934C205.499 252.178 206.82 252.597 208.078 253.006C208.342 253.091 208.608 253.178 208.876 253.266C209.978 253.625 211.109 253.994 212.267 254.339C215.346 255.257 217.694 255.701 218.989 255.534C220.006 255.403 220.801 255.273 221.556 255.149L221.626 255.137C222.388 255.012 223.176 254.884 224.036 254.797C225.835 254.615 227.747 254.637 230.885 254.94C232.16 255.063 233.45 255.204 234.741 255.345C239.942 255.912 245.153 256.48 249.489 255.921C250.496 255.791 251.8 255.593 253.225 255.376L253.226 255.376L253.226 255.376C255.387 255.048 257.825 254.678 259.925 254.44C263.548 254.029 267.735 253.778 271.045 254.674C272.852 255.163 274.875 256.231 276.677 257.28C278.373 258.268 280.199 259.438 281.914 260.537L282.469 260.892C284.395 262.125 286.137 263.226 287.594 264.02C288.32 264.416 288.89 264.688 289.312 264.852C289.392 264.883 289.459 264.907 289.514 264.926C289.573 264.946 289.618 264.96 289.65 264.969C290.04 264.949 290.634 264.855 291.565 264.63C292.235 264.467 292.907 264.282 293.686 264.068L293.688 264.067C294.17 263.935 294.694 263.791 295.283 263.634C298.209 262.854 301.938 261.989 306.403 261.881C311.195 261.766 314.931 263.114 317.745 264.129L317.795 264.147C320.823 265.24 322.289 265.687 323.808 265.42C325.467 265.128 326.689 264.287 328.745 262.87L328.745 262.869L328.981 262.707C331.012 261.308 333.911 259.367 338 259.367C340.079 259.367 342.235 259.985 344.111 260.629C345.328 261.047 346.698 261.577 348.043 262.098C348.763 262.377 349.476 262.654 350.155 262.908C354.368 264.489 358.386 265.681 362.176 265.373C366.122 265.051 368.787 263.796 371.118 262.444C371.493 262.227 371.946 261.952 372.426 261.662L372.43 261.66C373.23 261.175 374.102 260.647 374.798 260.27C376.085 259.573 377.652 258.864 379.489 258.627C381.358 258.386 383.343 258.723 384.996 259.13C386.724 259.556 388.5 260.167 390.078 260.753C390.874 261.048 391.645 261.346 392.349 261.619L392.492 261.674L392.494 261.675C393.15 261.929 393.734 262.155 394.26 262.351C394.678 262.506 395.019 262.627 395.294 262.716C395.365 262.677 395.442 262.632 395.526 262.582C395.614 262.529 395.709 262.47 395.811 262.404C396.619 261.882 397.628 261.075 398.606 260.05C400.651 257.907 402 255.42 402 253.123C402 251.247 402.434 247.964 402.985 244.434C403.556 240.781 404.314 236.506 405.067 232.446C405.821 228.381 406.574 224.508 407.138 221.653C407.421 220.225 407.656 219.051 407.821 218.232C407.903 217.823 407.968 217.503 408.013 217.285L408.063 217.036L408.076 216.971L408.08 216.955L408.081 216.95L408.081 216.949C408.081 216.949 408.081 216.949 412 217.75L408.081 216.949L413.001 192.887L415.971 217.266L423.855 282.003C425.199 277.315 426.727 272.518 428.323 268.545C429.189 266.387 430.116 264.37 431.093 262.712C431.988 261.191 433.232 259.424 434.932 258.397C439.937 255.374 446.584 254.92 451.599 254.731C452.521 254.696 453.383 254.671 454.196 254.648C455.794 254.602 457.2 254.561 458.491 254.462C459.43 254.39 460.156 254.296 460.701 254.179C461.143 254.084 461.337 254.001 461.377 253.983C461.382 253.981 461.385 253.98 461.385 253.98C461.385 253.98 461.384 253.981 461.383 253.981C461.379 253.984 461.376 253.986 461.372 253.988L461.382 253.982C461.382 253.982 461.383 253.982 461.383 253.981C463.026 252.949 465.092 251.531 467.443 249.916L467.519 249.864C469.822 248.282 472.358 246.54 474.859 244.921C477.376 243.292 479.947 241.73 482.294 240.55C484.486 239.449 487.044 238.382 489.359 238.301C493.388 238.159 497.651 240.173 500.705 242.451C502.298 243.64 503.783 245.06 504.906 246.615C505.947 248.056 506.934 249.969 506.997 252.133C507.046 252.23 507.206 252.518 507.66 253C508.413 253.798 509.604 254.721 511.132 255.606C514.261 257.421 517.938 258.594 520.5 258.594C522.518 258.594 523.458 257.899 525.024 256.559C525.116 256.481 525.211 256.399 525.309 256.314C526.977 254.872 529.602 252.602 534 252.602C538.25 252.602 541.517 254.72 543.721 256.149L543.862 256.241C546.415 257.895 547.647 258.594 549 258.594C551.188 258.594 555.143 257.729 559.742 256.688L559.872 256.658C561.997 256.177 564.184 255.682 566.125 255.319C568.018 254.965 570.044 254.662 571.672 254.732C573.912 254.828 576.171 256.034 577.795 256.991C579.177 257.805 580.704 258.824 582.171 259.804L582.183 259.812C582.614 260.1 583.04 260.384 583.456 260.659C585.382 261.932 587.194 263.073 588.861 263.885C590.597 264.731 591.733 264.994 592.381 264.975C593.39 264.945 595.255 264.506 598.189 263.628C599.139 263.343 600.194 263.016 601.316 262.667L601.32 262.666C603.355 262.034 605.608 261.334 607.851 260.702C614.75 258.756 623.339 256.876 630.498 258.721C633.7 259.546 635.911 260.454 637.497 261.559C639.138 262.702 639.879 263.912 640.285 264.601C640.774 264.723 641.867 264.899 644.134 264.975C648.742 265.13 653.206 263.087 658.989 260.374L659.094 260.325C664.525 257.777 671.023 254.728 678.5 254.728C682.257 254.728 685.209 255.43 687.603 256.696C690 257.963 691.533 259.636 692.636 261.029C692.899 261.362 693.281 261.869 693.582 262.269C693.751 262.495 693.895 262.686 693.977 262.792C694.354 263.278 694.603 263.556 694.806 263.737L694.81 263.741C695.018 263.926 695.153 264.047 695.779 264.013C698.066 263.886 701.266 262.443 704.525 259.768C707.71 257.154 710.419 253.795 711.872 250.665C714.619 244.749 721.941 226.86 725.291 218.571L730.829 204.869L732.958 219.493L743.534 292.143C744.327 289.078 745.086 285.896 745.832 282.739L746.025 281.923L746.026 281.918C747.029 277.671 748.008 273.524 748.998 270.024C750.007 266.453 751.178 262.966 752.688 260.737C753.578 259.424 755.104 258.054 756.556 256.892C758.117 255.642 759.991 254.323 761.907 253.119C763.818 251.918 765.846 250.783 767.72 249.933C769.421 249.162 771.568 248.35 773.5 248.35C777.045 248.35 780.11 250.515 782.222 252.295C783.872 253.686 785.552 255.4 786.97 256.846C787.453 257.339 787.906 257.8 788.317 258.208C790.315 260.189 792.911 263.156 794.945 265.545C795.786 266.532 796.547 267.441 797.154 268.171C797.221 268.134 797.292 268.092 797.368 268.046C797.525 267.951 797.701 267.838 797.897 267.702C799.272 266.756 800.846 265.291 802.532 263.59C803.077 263.04 803.656 262.442 804.238 261.841C805.303 260.74 806.379 259.629 807.276 258.786C807.984 258.119 808.801 257.403 809.631 256.872C810.046 256.607 810.621 256.285 811.31 256.076C811.988 255.87 813.112 255.676 814.358 256.125C817.578 257.288 823.003 258.129 828.71 258.608C834.337 259.081 839.76 259.166 842.763 258.988C844.75 258.87 847.024 258.801 849.228 258.735L849.237 258.734C850.64 258.692 852.014 258.651 853.269 258.598C856.782 258.45 859.424 258.21 860.886 257.786C861.023 257.746 861.314 257.615 861.824 257.12C862.301 256.657 862.74 256.115 863.353 255.359L863.353 255.358C863.447 255.243 863.544 255.123 863.646 254.997C864.319 254.169 865.262 253.025 866.428 252.115C867.677 251.14 869.363 250.283 871.5 250.283C873.721 250.283 875.797 251.42 877.156 252.239C878.2 252.867 879.379 253.673 880.495 254.436L880.496 254.436C880.963 254.756 881.419 255.068 881.849 255.355C883.433 256.415 884.92 257.333 886.346 257.968C887.777 258.605 888.898 258.842 889.779 258.794C891.371 258.706 892.521 258.249 894.499 257.464C894.69 257.388 894.889 257.309 895.097 257.227C895.43 257.096 895.786 256.957 896.169 256.81C898.49 255.921 901.251 255.041 905 254.692V0ZM905 262.737C902.531 263.041 900.689 263.645 899.031 264.281C898.662 264.422 898.275 264.578 897.87 264.742C895.796 265.581 893.239 266.615 890.221 266.781C887.602 266.926 885.16 266.197 883.092 265.276C881.018 264.352 879.067 263.12 877.401 262.004C876.795 261.599 876.245 261.223 875.732 260.872L875.729 260.87C874.727 260.184 873.871 259.598 873.031 259.093C872.131 258.551 871.662 258.371 871.503 258.312C871.476 258.329 871.442 258.352 871.399 258.384C871.385 258.395 871.369 258.407 871.353 258.42C870.988 258.705 870.556 259.18 869.854 260.043C869.775 260.14 869.692 260.243 869.605 260.351C869.022 261.074 868.248 262.034 867.395 262.861C866.374 263.852 864.977 264.929 863.114 265.469C860.576 266.205 856.968 266.449 853.606 266.591C852.12 266.653 850.662 266.696 849.237 266.739L849.235 266.739C847.163 266.8 845.16 266.859 843.237 266.974C839.74 267.182 833.913 267.074 828.04 266.58C822.932 266.151 817.409 265.401 813.24 264.171C813.099 264.295 812.939 264.441 812.758 264.611C811.979 265.344 811.154 266.199 810.206 267.179L810.204 267.182C809.597 267.81 808.939 268.49 808.212 269.223C806.492 270.958 804.473 272.888 802.435 274.291C800.642 275.526 797.654 277.201 794.431 276.307L793.202 275.966L792.397 274.977L792.397 274.976L792.394 274.973L792.382 274.957L792.331 274.895L792.131 274.651C791.955 274.437 791.7 274.127 791.382 273.742C790.744 272.972 789.856 271.908 788.854 270.731C786.821 268.344 784.418 265.608 782.683 263.888C782.102 263.312 781.543 262.742 780.997 262.185C779.663 260.824 778.402 259.539 777.066 258.412C775.094 256.75 773.969 256.355 773.509 256.35L773.51 256.35C773.51 256.35 773.507 256.35 773.5 256.351C773.454 256.358 773.25 256.385 772.848 256.507C772.365 256.654 771.753 256.889 771.025 257.219C769.57 257.878 767.867 258.822 766.164 259.892C764.467 260.959 762.847 262.104 761.555 263.138C760.155 264.259 759.47 264.991 759.312 265.224C758.622 266.242 757.734 268.527 756.696 272.2C755.755 275.527 754.814 279.515 753.794 283.831L753.618 284.578C751.494 293.567 749.001 304.022 745.607 311.101L739.932 322.935L738.042 309.948L727.155 235.164C724.077 242.626 720.81 250.411 719.128 254.034C717.081 258.443 713.54 262.719 709.6 265.952C705.734 269.124 700.934 271.74 696.221 272C693.352 272.159 691.172 271.218 689.475 269.702C688.725 269.032 688.123 268.298 687.652 267.689C687.363 267.317 687.178 267.068 687.01 266.841L687.008 266.839C686.816 266.58 686.644 266.349 686.364 265.996C685.592 265.021 684.875 264.302 683.865 263.769C682.854 263.234 681.243 262.728 678.5 262.728C673.025 262.728 668.059 264.956 662.386 267.617C662.201 267.704 662.014 267.792 661.825 267.88C656.606 270.333 650.518 273.194 643.866 272.971C640.951 272.873 638.762 272.616 637.118 271.975C636.196 271.616 635.389 271.118 634.706 270.44C634.076 269.816 633.691 269.166 633.504 268.851L633.497 268.838L633.441 268.743C633.193 268.324 633.179 268.3 632.925 268.124C632.464 267.803 631.3 267.189 628.502 266.468C623.661 265.22 617 266.433 610.024 268.401C607.854 269.013 605.829 269.643 603.881 270.248L603.88 270.249C602.725 270.608 601.598 270.958 600.483 271.292C597.745 272.111 594.86 272.904 592.619 272.971C590.017 273.048 587.465 272.104 585.358 271.077C583.181 270.016 580.993 268.62 579.044 267.333C578.543 267.001 578.062 266.68 577.598 266.37L577.586 266.362L577.585 266.362C576.163 265.413 574.904 264.572 573.736 263.884C572.979 263.439 572.37 263.124 571.891 262.925C571.534 262.776 571.351 262.735 571.308 262.726C571.301 262.724 571.298 262.723 571.298 262.723C570.666 262.702 569.452 262.836 567.594 263.183C565.805 263.517 563.744 263.984 561.55 264.481L561.548 264.481L561.508 264.49L561.164 264.568C557.081 265.493 552.221 266.594 549 266.594C545.09 266.594 541.961 264.552 539.879 263.194L539.668 263.056L539.513 262.955C537.092 261.387 535.658 260.602 534 260.602C532.656 260.602 532.076 261.054 530.226 262.637C528.292 264.293 525.482 266.594 520.5 266.594C516.062 266.594 510.989 264.771 507.118 262.527C505.146 261.383 503.275 260.01 501.84 258.489C500.526 257.096 499.008 254.974 499 252.37C499 252.373 499 252.375 498.999 252.375C498.999 252.375 498.998 252.37 498.995 252.361C498.975 252.288 498.88 251.934 498.422 251.301C497.874 250.542 497.014 249.679 495.92 248.863C493.599 247.13 491.112 246.244 489.641 246.296C489.206 246.311 488.004 246.634 485.886 247.698C483.923 248.685 481.635 250.065 479.205 251.638C476.797 253.196 474.336 254.886 472.005 256.488L471.973 256.51L471.966 256.515C469.66 258.099 467.44 259.624 465.628 260.762C463.688 261.981 461.083 262.287 459.103 262.439C457.622 262.552 455.893 262.603 454.178 262.653L454.176 262.653L454.16 262.653C453.397 262.676 452.636 262.698 451.901 262.725C446.666 262.923 442.063 263.436 439.068 265.245C439.09 265.231 439.087 265.235 439.06 265.263C438.967 265.359 438.586 265.752 437.986 266.771C437.295 267.946 436.539 269.553 435.746 271.527C434.166 275.461 432.599 280.448 431.201 285.422C429.809 290.375 428.611 295.221 427.759 298.836C427.334 300.641 426.996 302.134 426.766 303.174C426.65 303.694 426.561 304.1 426.502 304.375C426.472 304.512 426.45 304.617 426.435 304.686L426.418 304.764L426.414 304.782L426.413 304.787L426.413 304.787L421.436 328.306L418.529 304.443L411.163 243.96C411.068 244.544 410.976 245.114 410.89 245.669C410.316 249.336 410 251.983 410 253.123C410 258.364 407.099 262.739 404.394 265.573C402.997 267.037 401.506 268.248 400.158 269.121C399.485 269.555 398.793 269.943 398.117 270.236C397.551 270.481 396.587 270.847 395.5 270.847C394.633 270.847 393.799 270.619 393.318 270.478C392.735 270.307 392.098 270.082 391.474 269.85C390.891 269.634 390.253 269.386 389.612 269.138L389.458 269.078C388.753 268.805 388.032 268.526 387.297 268.253C385.812 267.703 384.369 267.215 383.082 266.898C381.719 266.562 380.892 266.512 380.511 266.561C380.098 266.615 379.54 266.799 378.609 267.304C378 267.634 377.5 267.94 376.902 268.305C376.414 268.603 375.862 268.941 375.132 269.365C372.213 271.057 368.378 272.894 362.824 273.346C357.114 273.811 351.632 272.007 347.345 270.398C346.469 270.07 345.671 269.76 344.921 269.469L344.919 269.468C343.696 268.994 342.602 268.569 341.514 268.196C339.765 267.596 338.671 267.367 338 267.367C336.589 267.367 335.488 267.939 333.519 269.295C333.368 269.399 333.21 269.509 333.046 269.624L333.043 269.626C331.248 270.879 328.651 272.691 325.192 273.299C321.4 273.965 318.014 272.737 315.456 271.809L315.442 271.803C315.319 271.759 315.199 271.715 315.08 271.672C312.275 270.66 309.777 269.802 306.597 269.879C303.062 269.964 300.041 270.646 297.342 271.364C296.904 271.481 296.447 271.606 295.986 271.733C295.11 271.973 294.225 272.216 293.451 272.404C292.244 272.697 290.867 272.973 289.5 272.973C288.316 272.973 287.209 272.618 286.412 272.308C285.544 271.97 284.641 271.522 283.766 271.044C282.02 270.093 280.042 268.838 278.156 267.63L277.613 267.282L277.612 267.282C275.867 266.164 274.19 265.09 272.651 264.193C270.875 263.159 269.648 262.584 268.955 262.396C267.265 261.939 264.452 261.978 260.825 262.389C258.681 262.632 256.758 262.929 254.86 263.222L254.859 263.222C253.424 263.444 252.003 263.663 250.511 263.855C245.123 264.55 238.64 263.832 233.403 263.253C232.237 263.124 231.132 263.001 230.115 262.903C227.253 262.626 225.915 262.648 224.839 262.756C224.261 262.815 223.706 262.903 222.921 263.032L222.832 263.046L222.83 263.047C222.076 263.171 221.166 263.32 220.011 263.469C216.806 263.882 212.904 262.877 209.983 262.006C208.715 261.628 207.462 261.219 206.354 260.858L206.335 260.852C206.085 260.77 205.843 260.691 205.609 260.615C204.262 260.178 203.291 259.879 202.637 259.735C200.732 259.314 199.275 258.16 198.341 257.375C197.87 256.979 197.491 256.643 197.133 256.325C196.582 255.836 196.08 255.39 195.366 254.838C193.434 253.344 190.793 251.829 186.22 251.507C182.3 251.232 177.956 253.448 174.185 256.723C172.37 258.299 170.861 259.974 169.803 261.387C169.273 262.094 168.889 262.691 168.643 263.138C168.503 263.394 168.441 263.54 168.42 263.591C167.915 266.222 165.713 267.693 164.486 268.405C162.972 269.285 161.038 270.057 159.049 270.777C157.58 271.309 156.036 271.831 154.418 272.378C151.369 273.409 148.059 274.529 144.499 275.967C144.334 276.034 143.7 276.424 142.663 277.687C141.692 278.869 140.624 280.499 139.495 282.512C137.24 286.53 134.966 291.667 132.917 296.817C130.876 301.944 129.101 306.975 127.834 310.733C127.201 312.609 126.697 314.162 126.352 315.243C126.179 315.784 126.047 316.206 125.958 316.492C125.913 316.634 125.88 316.743 125.857 316.815L125.833 316.895L125.827 316.914L125.826 316.918L125.825 316.919L120.304 334.992L118.029 316.231L109.974 249.798C108.851 254.322 107.902 258.596 107.458 261.627C106.496 268.195 102.591 272.412 98.5091 274.883C94.5539 277.278 90.2092 278.192 87.5 278.192C85.8329 278.192 84.47 277.453 83.617 276.891C82.6924 276.282 81.8082 275.5 81.0139 274.735C80.0608 273.817 78.9419 272.622 77.8314 271.437C77.1852 270.747 76.5418 270.06 75.9355 269.432C74.1405 267.574 72.3381 265.864 70.5107 264.584C68.6722 263.297 67.0723 262.635 65.6755 262.522C61.5418 262.185 57.3937 262.851 53.3796 263.824C51.6169 264.251 49.9365 264.722 48.2892 265.184L48.1981 265.21C47.9985 265.266 47.7994 265.322 47.6007 265.377C45.7824 265.886 43.9434 266.389 42.2591 266.715C37.5866 267.618 34.1267 265.023 31.8885 263.345C31.7107 263.211 31.5406 263.084 31.3782 262.964C28.8788 261.124 26.5189 259.533 22.6917 259.237C18.4305 258.908 14.7657 259.794 10.7002 260.858C10.5172 260.906 10.3328 260.955 10.147 261.004C7.11727 261.8 3.71198 262.695 0 262.798V500H905V262.737ZM394.82 262.94C394.82 262.939 394.836 262.933 394.867 262.924C394.834 262.937 394.819 262.941 394.82 262.94ZM161.031 261.101C161.033 261.101 161.019 261.116 160.984 261.145C161.012 261.115 161.029 261.1 161.031 261.101ZM88.1713 270.304C88.1934 270.315 88.2041 270.32 88.2039 270.319C88.2039 270.319 88.2006 270.317 88.1943 270.314C88.1889 270.311 88.1812 270.308 88.1713 270.304ZM871.588 258.268C871.586 258.269 871.58 258.272 871.57 258.274C871.585 258.267 871.591 258.266 871.588 258.268Z" fill="#C5072A"/>
<g opacity="0.6">
<rect width="905" height="2" fill="white"/>
<rect y="38.3077" width="905" height="2" fill="white"/>
<rect y="76.6154" width="905" height="2" fill="white"/>
<rect y="114.923" width="905" height="2" fill="white"/>
<rect y="153.231" width="905" height="2" fill="white"/>
<rect y="191.538" width="905" height="2" fill="white"/>
<rect y="229.846" width="905" height="2" fill="white"/>
<rect y="268.154" width="905" height="2" fill="white"/>
<rect y="306.462" width="905" height="2" fill="white"/>
<rect y="344.769" width="905" height="2" fill="white"/>
<rect y="383.077" width="905" height="2" fill="white"/>
<rect y="421.385" width="905" height="2" fill="white"/>
<rect y="459.692" width="905" height="2" fill="white"/>
<rect y="498" width="905" height="2" fill="white"/>
</g>
</svg>
