<svg width="1126" height="500" viewBox="0 0 1126 500" fill="none" xmlns="http://www.w3.org/2000/svg">
<path fill-rule="evenodd" clip-rule="evenodd" d="M905 0H0V252.881C2.85001 252.818 5.64163 252.371 8.84729 251.857L8.84747 251.857L9.0547 251.824C13.1243 251.172 17.7363 250.455 23.1891 250.713C28.9302 250.985 32.5949 252.552 35.394 253.814C38.1845 255.072 39.3042 255.556 41.0299 255.352C42.6773 255.157 44.3874 254.861 46.35 254.522L46.3506 254.522C47.975 254.241 49.7724 253.93 51.8504 253.622C56.1533 252.983 61.0723 252.47 66.1991 252.725C72.076 253.018 77.221 255.946 80.9539 258.312C81.7953 258.846 82.5259 259.324 83.1921 259.761L83.1958 259.764C84.1586 260.395 84.987 260.938 85.8212 261.43C86.8266 262.023 87.3334 262.215 87.4971 262.277C87.5393 262.293 87.5587 262.3 87.558 262.303C87.5577 262.305 87.5517 262.306 87.5405 262.306C89.138 262.3 92.256 261.919 95.0473 260.884C98.0791 259.76 99.3514 258.408 99.6097 257.329C100.297 254.455 101.881 250.398 103.458 246.701C105.069 242.925 106.799 239.233 107.909 236.971L113.123 226.338L115.424 237.955L123.812 280.31C124.452 279.259 125.133 278.171 125.846 277.073C127.977 273.794 130.464 270.329 133.057 267.499C135.507 264.826 138.606 262.089 142.039 261.24C145.756 260.32 149.462 259.551 152.626 258.895L152.627 258.895L152.637 258.893C154.182 258.572 155.598 258.279 156.822 258.008C158.785 257.572 160.211 257.206 161.136 256.878C161.192 256.857 161.244 256.838 161.292 256.82C161.608 256.315 161.947 255.926 162.161 255.687C162.695 255.093 163.352 254.488 164.071 253.9C165.518 252.718 167.443 251.422 169.685 250.23C174.119 247.873 180.216 245.701 186.672 245.979C192.727 246.239 196.624 247.531 199.524 248.904C200.402 249.319 201.328 249.819 202.015 250.19C202.31 250.349 202.56 250.484 202.744 250.579C203.54 250.988 203.858 251.076 204.036 251.1C205.178 251.254 206.868 251.59 208.628 251.941C209.711 252.156 210.82 252.377 211.843 252.563C214.878 253.117 217.522 253.456 219.185 253.325C220.186 253.246 221.002 253.164 221.745 253.089H221.745C224.198 252.842 225.858 252.675 230.736 252.964C231.958 253.036 233.211 253.12 234.478 253.205C239.695 253.554 245.149 253.919 249.685 253.561C250.781 253.475 252.115 253.35 253.549 253.217L253.55 253.216C255.662 253.019 257.992 252.802 260.098 252.656C263.72 252.405 267.642 252.275 270.654 252.774C273.473 253.241 277.579 254.855 281.018 256.206L281.018 256.206L281.391 256.353C281.519 256.403 281.646 256.453 281.772 256.502C283.693 257.255 285.458 257.938 286.946 258.435C287.686 258.682 288.301 258.863 288.789 258.979C289.247 259.088 289.461 259.107 289.496 259.11C289.502 259.111 289.503 259.111 289.5 259.111C290.568 259.111 291.911 258.886 294.015 258.535C294.52 258.45 295.069 258.358 295.669 258.261C298.559 257.789 302.155 257.281 306.441 257.218C310.945 257.151 314.466 257.928 317.3 258.554C320.224 259.2 322.081 259.585 324.072 259.371C326.016 259.161 327.419 258.568 329.332 257.759L329.696 257.606C331.802 256.718 334.415 255.679 338 255.679C339.808 255.679 341.768 256.012 343.635 256.404C344.831 256.656 346.156 256.97 347.484 257.285C348.21 257.457 348.938 257.63 349.646 257.792C353.848 258.758 358.14 259.56 362.301 259.353C366.554 259.141 369.41 258.307 371.787 257.463C372.184 257.322 372.602 257.165 373.039 257.001L373.039 257.001C374.98 256.272 377.283 255.408 379.685 255.218C382.648 254.984 386.628 255.805 389.573 256.474C390.36 256.652 391.123 256.833 391.827 257L391.971 257.034C392.625 257.189 393.218 257.33 393.754 257.452C394.731 257.674 395.233 257.762 395.418 257.793L395.452 257.784C395.592 257.746 395.938 257.654 396.511 257.427C397.366 257.088 398.384 256.585 399.34 255.972C400.316 255.346 401.078 254.7 401.555 254.122C401.933 253.663 401.992 253.423 402 253.387C402.005 251.866 402.532 249.553 403.062 247.476C403.645 245.189 404.415 242.534 405.172 240.034C405.931 237.527 406.689 235.142 407.256 233.385C407.54 232.506 407.777 231.783 407.943 231.278L408.044 230.971C408.081 230.86 408.111 230.767 408.136 230.693L408.188 230.538L408.201 230.498L408.205 230.487L408.206 230.484L408.206 230.483C408.206 230.483 408.206 230.483 412 231.75L408.206 230.483L412.982 216.184L415.923 230.97L423.814 270.635C425.241 267.543 426.913 264.276 428.69 261.568C429.599 260.182 430.592 258.855 431.656 257.748C432.681 256.682 434.003 255.576 435.613 254.981C440.34 253.232 446.639 252.956 451.658 252.84C452.543 252.819 453.387 252.804 454.192 252.79H454.193C455.816 252.761 457.282 252.735 458.609 252.673C460.738 252.573 461.757 252.395 462.064 252.277C463.723 251.639 465.805 250.764 468.157 249.775L468.227 249.745C470.534 248.775 473.064 247.711 475.558 246.723C478.072 245.727 480.613 244.783 482.914 244.075C485.128 243.393 487.453 242.823 489.414 242.781C492.936 242.705 496.918 243.801 499.975 245.198C501.522 245.904 503.043 246.783 504.25 247.805C505.039 248.474 506.366 249.761 506.832 251.593C506.862 251.613 506.894 251.635 506.928 251.657C507.66 252.132 508.871 252.711 510.463 253.276C513.655 254.41 517.569 255.206 520.5 255.206C523.084 255.206 524.292 254.602 525.768 253.828L526.001 253.706C527.779 252.77 530.122 251.537 534 251.537C537.827 251.537 540.831 252.728 543.135 253.642L543.162 253.653C545.576 254.61 547.132 255.206 549 255.206C551.404 255.206 555.564 254.641 560.076 254.016L560.538 253.952C564.592 253.389 569.034 252.773 571.605 252.84C573.432 252.888 575.433 253.513 577.122 254.122C578.483 254.613 579.986 255.227 581.45 255.826L581.452 255.827C581.89 256.006 582.324 256.183 582.75 256.356C586.804 257.996 590.144 259.153 592.427 259.112C593.671 259.089 595.724 258.78 598.615 258.25C599.594 258.071 600.663 257.867 601.793 257.653C603.813 257.268 606.026 256.847 608.257 256.462C615.184 255.266 623.401 254.194 630.123 255.255C633.231 255.745 635.302 256.272 636.78 256.902C638.318 257.558 639.122 258.295 639.623 258.804C640.194 258.92 641.432 259.057 644.082 259.112C649.123 259.216 653.909 257.849 659.583 256.219C665.104 254.633 671.363 252.839 678.5 252.839C682.043 252.839 684.761 253.241 686.966 253.954C689.228 254.686 690.76 255.686 691.947 256.603C692.492 257.025 692.845 257.317 693.11 257.536C693.509 257.865 693.708 258.029 694.06 258.222C694.314 258.361 694.746 258.559 695.865 258.522C698.616 258.428 702.041 257.415 705.267 255.794C708.523 254.158 711.066 252.161 712.313 250.516C715.015 246.953 722.297 236.063 725.662 230.966L730.754 223.253L732.891 232.245L743.502 276.869C744.348 274.896 745.169 272.797 745.993 270.662L746.195 270.14C747.189 267.561 748.194 264.956 749.215 262.743C750.25 260.503 751.56 258.063 753.318 256.475C754.31 255.578 755.897 254.72 757.296 254.035C758.846 253.275 760.704 252.474 762.599 251.745C764.493 251.016 766.484 250.335 768.302 249.83C770.02 249.353 771.924 248.933 773.5 248.933C776.466 248.933 779.252 250.069 781.478 251.218C783.128 252.07 784.815 253.123 786.234 254.009L786.237 254.01C786.718 254.311 787.169 254.592 787.576 254.84C789.587 256.061 792.196 257.887 794.235 259.352C795.264 260.092 796.175 260.76 796.83 261.245C797.231 261.168 797.813 261.001 798.612 260.664C800.021 260.07 801.601 259.167 803.271 258.136C803.81 257.803 804.386 257.439 804.967 257.072C806.036 256.396 807.12 255.71 808.02 255.191C808.742 254.776 809.543 254.348 810.327 254.041C810.927 253.806 812.316 253.301 813.863 253.643C820.858 255.188 836.451 255.678 842.854 255.445C844.829 255.373 847.049 255.332 849.228 255.292C850.639 255.266 852.034 255.241 853.334 255.207C856.823 255.117 859.646 254.969 861.301 254.675C862.183 254.519 862.779 254.082 864.344 252.904C865.758 251.839 868.068 250.117 871.5 250.117C873.261 250.117 875.052 250.685 876.477 251.21C877.501 251.588 878.652 252.07 879.76 252.533L879.762 252.534C880.234 252.732 880.698 252.926 881.141 253.108C884.407 254.446 887.313 255.413 889.865 255.326C891.715 255.264 893.106 254.924 895.122 254.433C895.603 254.316 896.12 254.19 896.687 254.057C898.903 253.537 901.496 253.03 905 252.821V0ZM905 260.838C902.287 261.03 900.281 261.431 898.513 261.846C898.108 261.94 897.696 262.042 897.275 262.146L897.268 262.148C895.186 262.661 892.884 263.229 890.135 263.322C885.687 263.472 881.343 261.835 878.109 260.511C877.522 260.27 876.981 260.044 876.474 259.831L876.467 259.828L876.466 259.828C875.451 259.403 874.569 259.033 873.711 258.717C872.386 258.229 871.739 258.117 871.5 258.117C870.932 258.117 870.492 258.288 869.156 259.294C869.06 259.367 868.957 259.446 868.848 259.529L868.846 259.531C867.612 260.475 865.562 262.044 862.699 262.552C860.354 262.969 856.927 263.117 853.541 263.204C852.1 263.241 850.656 263.268 849.233 263.294C847.135 263.332 845.08 263.369 843.146 263.44C836.764 263.672 821.199 263.252 812.944 261.623C812.717 261.732 812.412 261.894 812.014 262.123C811.237 262.571 810.419 263.089 809.475 263.687C808.867 264.072 808.207 264.49 807.473 264.943C805.737 266.015 803.724 267.191 801.72 268.036C799.825 268.835 797.33 269.609 794.83 269.185L793.872 269.022L793.095 268.437L793.095 268.437L793.092 268.435L793.08 268.426L793.03 268.388L792.928 268.312L792.831 268.239C792.656 268.109 792.402 267.92 792.084 267.685C791.449 267.215 790.563 266.566 789.564 265.847C787.536 264.389 785.145 262.723 783.424 261.678C782.84 261.323 782.28 260.974 781.733 260.632C780.4 259.8 779.146 259.017 777.809 258.327C775.939 257.362 774.534 256.933 773.5 256.933C773.076 256.933 772.054 257.091 770.443 257.538C768.932 257.958 767.192 258.549 765.472 259.211C763.754 259.872 762.118 260.58 760.816 261.218C760.164 261.538 759.629 261.824 759.225 262.063C758.888 262.262 758.729 262.378 758.687 262.408C758.678 262.414 758.675 262.417 758.676 262.416C758.233 262.82 757.487 263.913 756.478 266.098C755.569 268.066 754.653 270.442 753.622 273.113L753.457 273.542C751.36 278.975 748.758 285.703 745.149 290.311L740.029 296.848L738.109 288.77L727.233 243.032C724.016 247.816 720.48 252.986 718.687 255.35C716.434 258.321 712.727 260.999 708.858 262.943C704.959 264.902 700.384 266.373 696.135 266.517C693.754 266.597 691.874 266.145 690.221 265.241C689.174 264.668 688.113 263.797 687.466 263.266C687.37 263.187 687.283 263.116 687.207 263.054C687.15 263.008 687.098 262.967 687.053 262.932C686.365 262.4 685.647 261.935 684.503 261.565C683.301 261.177 681.457 260.839 678.5 260.839C672.637 260.839 667.396 262.299 661.792 263.908L661.353 264.034C656.022 265.567 650.204 267.239 643.918 267.11C641.029 267.051 639.057 266.896 637.642 266.558C636.875 266.375 636.138 266.109 635.446 265.689C634.746 265.264 634.287 264.793 634.064 264.562C634.021 264.518 633.992 264.485 633.968 264.459C633.937 264.425 633.917 264.403 633.894 264.384C633.851 264.349 633.797 264.327 633.642 264.261C633.073 264.018 631.769 263.613 628.877 263.157C623.599 262.324 616.566 263.145 609.618 264.345C607.436 264.722 605.374 265.115 603.411 265.488L603.41 265.489C602.26 265.707 601.144 265.92 600.057 266.119C597.276 266.629 594.579 267.074 592.573 267.11C588.356 267.187 583.446 265.267 579.75 263.772C579.252 263.57 578.772 263.374 578.307 263.184C576.88 262.601 575.597 262.077 574.409 261.648C572.755 261.052 571.818 260.849 571.395 260.837C569.565 260.789 565.75 261.306 561.174 261.94L560.967 261.969L560.967 261.969C556.779 262.549 552.046 263.206 549 263.206C545.53 263.206 542.687 262.074 540.512 261.208L540.213 261.09C537.895 260.17 536.158 259.537 534 259.537C532.107 259.537 531.228 259.998 529.629 260.837L529.482 260.914C527.458 261.975 524.916 263.206 520.5 263.206C516.431 263.206 511.595 262.167 507.787 260.815C505.879 260.138 504.028 259.312 502.572 258.367C501.852 257.899 501.074 257.304 500.433 256.56C499.954 256.003 499.335 255.108 499.098 253.926L499.078 253.909C498.613 253.515 497.79 252.995 496.65 252.474C494.332 251.415 491.564 250.736 489.586 250.779C488.797 250.796 487.362 251.076 485.266 251.721C483.258 252.339 480.94 253.196 478.505 254.16C476.09 255.117 473.624 256.155 471.295 257.134L471.259 257.149L471.258 257.15C468.945 258.122 466.736 259.052 464.936 259.744C463.243 260.395 460.95 260.572 458.985 260.664C457.54 260.732 455.875 260.762 454.18 260.792C453.897 260.797 453.614 260.802 453.331 260.807C452.833 260.816 452.335 260.826 451.842 260.838C446.611 260.958 441.66 261.274 438.387 262.484C438.388 262.484 438.387 262.484 438.386 262.485C438.36 262.498 438.031 262.661 437.423 263.293C436.819 263.921 436.13 264.812 435.379 265.956C433.878 268.243 432.362 271.189 430.985 274.188C429.619 277.165 428.439 280.085 427.599 282.269C427.18 283.359 426.847 284.259 426.621 284.883C426.508 285.195 426.421 285.438 426.364 285.601C426.335 285.682 426.313 285.744 426.299 285.784L426.284 285.827L426.281 285.837L426.28 285.838L426.28 285.838L421.457 299.791L418.577 285.312L411.172 248.09C411.045 248.559 410.925 249.016 410.813 249.455C410.542 250.517 410.328 251.439 410.184 252.179C410.113 252.548 410.064 252.846 410.033 253.076C410.005 253.289 410.001 253.39 410 253.405C410 253.408 410 253.408 410 253.407C410 255.82 408.894 257.797 407.726 259.212C406.547 260.642 405.059 261.808 403.66 262.705C402.241 263.616 400.759 264.349 399.458 264.864C398.335 265.309 396.818 265.809 395.5 265.809C394.452 265.809 393.02 265.489 391.98 265.253C391.408 265.123 390.782 264.974 390.142 264.822L390.135 264.82L389.98 264.784C389.275 264.617 388.546 264.444 387.802 264.275C384.622 263.553 381.852 263.072 380.315 263.193C379.132 263.287 378.151 263.649 376.395 264.298L376.39 264.3C375.835 264.505 375.203 264.739 374.463 265.002C371.59 266.022 367.946 267.081 362.699 267.343C357.36 267.609 352.152 266.577 347.854 265.589C347.011 265.395 346.224 265.209 345.477 265.031C344.233 264.736 343.098 264.466 341.99 264.233C340.232 263.864 338.942 263.679 338 263.679C336.085 263.679 334.698 264.178 332.804 264.977C332.653 265.041 332.498 265.107 332.339 265.175C330.497 265.959 328.09 266.985 324.928 267.325C321.546 267.689 318.504 267.015 315.87 266.431L315.575 266.366C312.784 265.75 310.055 265.165 306.559 265.217C302.845 265.272 299.691 265.711 296.956 266.156C296.527 266.226 296.092 266.3 295.654 266.374L295.639 266.377C293.5 266.739 291.302 267.111 289.5 267.111C287.89 267.111 285.967 266.542 284.414 266.023C282.699 265.451 280.745 264.692 278.853 263.951L278.738 263.905L278.737 263.905C274.738 262.338 271.299 260.99 269.346 260.667C267.358 260.337 264.28 260.385 260.652 260.637C258.517 260.785 256.507 260.974 254.559 261.158L254.552 261.159C253.114 261.294 251.71 261.426 250.315 261.536C245.131 261.945 238.897 261.524 233.658 261.171L233.657 261.17C232.467 261.09 231.327 261.013 230.264 260.95C226.037 260.7 224.915 260.813 222.645 261.041L222.642 261.041C221.881 261.118 220.992 261.207 219.815 261.3C216.978 261.524 213.372 260.975 210.407 260.434C208.99 260.175 207.727 259.922 206.616 259.698L206.614 259.698C205.127 259.4 203.912 259.156 202.964 259.028C201.392 258.815 200.085 258.207 199.084 257.692C198.621 257.454 198.245 257.249 197.888 257.055L197.885 257.054C197.33 256.752 196.821 256.475 196.101 256.135C194.126 255.2 191.273 254.184 186.328 253.971C181.784 253.776 177.131 255.332 173.44 257.294C171.619 258.262 170.138 259.273 169.132 260.095C168.649 260.49 168.326 260.801 168.141 261.002C167.577 262.312 166.547 263.051 166.037 263.376C165.323 263.832 164.524 264.163 163.817 264.415C162.382 264.925 160.527 265.38 158.553 265.818C157.13 266.133 155.608 266.449 154.002 266.781C150.929 267.418 147.548 268.118 143.961 269.006C142.994 269.245 141.268 270.381 138.955 272.904C136.786 275.272 134.573 278.327 132.554 281.433C130.548 284.519 128.799 287.554 127.547 289.826C126.923 290.958 126.427 291.895 126.088 292.544C125.919 292.869 125.789 293.122 125.703 293.291C125.66 293.375 125.628 293.439 125.607 293.48L125.584 293.525L125.58 293.535L125.579 293.536L125.579 293.537L120.351 304.013L118.076 292.527L110.006 251.777C108.791 254.74 107.813 257.424 107.39 259.189C106.149 264.382 101.421 267.053 97.8277 268.385C94.0177 269.797 89.9151 270.306 87.5 270.306C85.2787 270.306 83.1591 269.147 81.7569 268.32C80.7999 267.756 79.6666 267.015 78.5503 266.286L78.5442 266.282C77.9018 265.862 77.2652 265.446 76.6711 265.069C73.029 262.761 69.424 260.896 65.8009 260.715C61.4277 260.498 57.0967 260.931 53.0246 261.535C51.4227 261.773 49.7325 262.061 48.089 262.342L48.0822 262.343L48.0814 262.343C45.8434 262.725 43.6925 263.092 41.9701 263.296C37.9605 263.771 34.9576 262.404 32.5708 261.318C32.4132 261.246 32.2583 261.175 32.106 261.107C29.6551 260.002 27.0698 258.906 22.8109 258.704C18.2637 258.489 14.3757 259.074 10.3203 259.723L9.8278 259.802C6.76341 260.295 3.50558 260.818 0 260.882V500H905V260.838ZM167.99 261.184C167.988 261.185 168.001 261.164 168.036 261.122C168.009 261.163 167.992 261.184 167.99 261.184ZM499.371 254.199C499.367 254.199 499.343 254.173 499.307 254.12C499.357 254.172 499.375 254.199 499.371 254.199ZM813.289 261.473C813.346 261.46 813.377 261.448 813.378 261.446C813.378 261.445 813.374 261.446 813.365 261.448C813.351 261.452 813.326 261.46 813.289 261.473Z" fill="#C5072A"/>
<g opacity="0.6">
<rect width="905" height="2" fill="white"/>
<rect y="38.3077" width="905" height="2" fill="white"/>
<rect y="76.6154" width="905" height="2" fill="white"/>
<rect y="114.923" width="905" height="2" fill="white"/>
<rect y="153.231" width="905" height="2" fill="white"/>
<rect y="191.538" width="905" height="2" fill="white"/>
<rect y="229.846" width="905" height="2" fill="white"/>
<rect y="268.154" width="905" height="2" fill="white"/>
<rect y="306.462" width="905" height="2" fill="white"/>
<rect y="344.769" width="905" height="2" fill="white"/>
<rect y="383.077" width="905" height="2" fill="white"/>
<rect y="421.385" width="905" height="2" fill="white"/>
<rect y="459.692" width="905" height="2" fill="white"/>
<rect y="498" width="905" height="2" fill="white"/>
</g>
</svg>
