<svg width="1126" height="500" viewBox="0 0 1126 500" fill="none" xmlns="http://www.w3.org/2000/svg">
<path fill-rule="evenodd" clip-rule="evenodd" d="M905 0H0V254.251C2.32829 254.09 4.78226 253.103 8.1662 251.711C12.1769 250.062 17.3248 247.958 23.4824 248.706C30.1773 249.52 34.2067 254.15 36.7764 257.124L36.9552 257.331C38.3013 258.889 39.1186 259.835 39.8917 260.417C40.1277 260.595 40.2728 260.668 40.3382 260.696C41.5745 260.32 43.0499 259.697 44.9141 258.877C45.1335 258.781 45.3575 258.682 45.5856 258.582C47.221 257.861 49.0735 257.044 51.014 256.305C55.4239 254.625 60.7868 253.141 66.5074 253.873C70.3405 254.363 73.4444 256.955 75.7646 259.507C78.1778 262.162 80.3539 265.467 82.2202 268.503C83.0129 269.793 83.7297 270.998 84.396 272.118L84.3964 272.119C85.3902 273.79 86.2719 275.272 87.1266 276.566C87.6447 277.35 88.0628 277.922 88.3902 278.316C91.2558 277.631 98.3485 273.962 99.5173 261.418C100.738 248.317 105.41 222.23 107.571 210.92L113.186 181.532L115.488 211.363L123.904 320.432C124.359 318.545 124.833 316.624 125.322 314.692C127.408 306.455 129.795 297.945 132.239 291.098C133.459 287.683 134.728 284.58 136.026 282.096C137.218 279.813 138.78 277.348 140.856 276.03C144.622 273.638 148.467 271.59 151.663 269.888L151.664 269.887C153.186 269.077 154.561 268.345 155.71 267.691C157.632 266.597 158.946 265.724 159.779 264.963C160.35 264.441 160.495 264.154 160.524 264.081C160.733 262.137 161.747 259.44 162.991 256.831C164.314 254.055 166.143 250.875 168.336 247.883C170.513 244.912 173.162 241.971 176.168 239.825C179.161 237.688 182.857 236.1 186.939 236.551C193.877 237.318 198.112 241.127 200.901 244.516C201.765 245.565 202.64 246.778 203.321 247.721L203.321 247.721C203.628 248.146 203.895 248.516 204.103 248.791C204.513 249.333 204.793 249.656 204.991 249.848C205.008 249.864 205.023 249.878 205.036 249.89C206.17 250.308 207.48 250.965 208.661 251.567C208.929 251.704 209.198 251.842 209.467 251.98L209.467 251.98C210.568 252.544 211.68 253.114 212.821 253.649C214.241 254.313 215.545 254.845 216.675 255.162C217.866 255.496 218.49 255.483 218.706 255.439C219.688 255.24 220.454 255.043 221.21 254.848L221.211 254.848L221.275 254.831L221.285 254.829C222.037 254.635 222.881 254.417 223.811 254.27C225.812 253.953 227.888 254.006 231.101 254.494C232.417 254.694 233.674 254.911 234.92 255.127C236.825 255.457 238.706 255.783 240.741 256.035C243.976 256.436 246.842 256.525 249.206 256.047C250.374 255.81 251.662 255.5 253.102 255.154L253.106 255.153C253.405 255.081 253.71 255.008 254.022 254.933C255.795 254.509 257.737 254.058 259.674 253.713C263.307 253.066 267.874 252.59 271.565 254.16C273.525 254.993 275.608 256.742 277.365 258.35C279.057 259.899 280.878 261.733 282.594 263.46L282.595 263.461L283.149 264.019C285.077 265.959 286.823 267.692 288.282 268.941C288.978 269.537 289.511 269.938 289.892 270.177C290.143 270.116 290.525 270.001 291.083 269.789C291.734 269.541 292.371 269.265 293.13 268.937L293.131 268.937C293.615 268.727 294.149 268.496 294.768 268.237C297.718 267.003 301.624 265.565 306.348 265.386C311.53 265.189 315.527 267.457 318.267 269.011L318.41 269.093C319.907 269.941 320.904 270.499 321.821 270.822C322.628 271.106 323.075 271.094 323.435 270.995C324.02 270.833 324.683 270.46 325.527 269.724C326.281 269.067 326.978 268.309 327.84 267.371C327.918 267.286 327.998 267.199 328.079 267.112C328.155 267.029 328.233 266.944 328.312 266.858L328.394 266.77C330.213 264.801 333.322 261.434 338 261.434C340.467 261.434 342.873 262.564 344.711 263.556C345.945 264.221 347.348 265.075 348.705 265.901L348.707 265.902C349.422 266.337 350.124 266.765 350.782 267.152C355.085 269.69 358.745 271.298 361.993 270.883C365.531 270.43 368.029 268.653 370.431 266.465C370.811 266.118 371.267 265.684 371.749 265.225C372.547 264.466 373.414 263.641 374.11 263.048C375.341 262.001 377.047 260.736 379.206 260.299C381.495 259.835 383.803 260.498 385.483 261.149C387.292 261.849 389.119 262.841 390.701 263.763C391.505 264.231 392.281 264.703 392.984 265.131L393.124 265.216C393.783 265.618 394.362 265.971 394.884 266.275C394.965 266.322 395.042 266.367 395.116 266.41L395.132 266.393C395.966 265.546 397.031 264.213 398.081 262.485C400.193 259.008 402 254.33 402 249.336C402 244.299 403.543 230.1 405.028 217.52C405.779 211.151 406.53 205.08 407.094 200.603C407.375 198.364 407.61 196.523 407.775 195.241C407.857 194.6 407.922 194.099 407.966 193.757L408.016 193.368L408.029 193.268L408.032 193.243L408.033 193.236L408.033 193.234C408.033 193.234 408.033 193.234 412 193.75L408.033 193.234L413.009 155L415.988 193.441L423.871 295.153C425.178 288.032 426.644 280.852 428.159 274.923C429.005 271.614 429.887 268.61 430.794 266.19C431.247 264.981 431.73 263.852 432.249 262.874C432.743 261.945 433.389 260.917 434.246 260.103C439.395 255.216 446.391 254.455 451.513 254.151C452.491 254.094 453.379 254.053 454.201 254.016H454.201C455.759 253.946 457.079 253.886 458.318 253.737C460.075 253.525 460.609 253.216 460.683 253.174C460.692 253.168 460.694 253.167 460.69 253.172C462.342 251.541 464.419 249.301 466.773 246.76L466.845 246.682C469.15 244.194 471.683 241.46 474.18 238.92C476.689 236.369 479.257 233.915 481.611 232.057C482.787 231.127 483.993 230.28 485.178 229.636C486.302 229.025 487.729 228.418 489.279 228.332C491.792 228.193 494.149 229.156 496.037 230.326C497.982 231.532 499.803 233.187 501.356 235.008C504.343 238.511 507 243.432 507 248.121C507 248.8 507.293 249.919 508.18 251.397C509.039 252.829 510.303 254.338 511.819 255.719C515.034 258.649 518.474 260.219 520.5 260.219C521.787 260.219 522.573 259.603 524.415 257.125C524.486 257.029 524.56 256.929 524.637 256.824L524.638 256.823C525.397 255.796 526.438 254.387 527.697 253.276C529.234 251.918 531.295 250.803 534 250.803C536.606 250.803 538.746 251.84 540.399 253C542.005 254.127 543.423 255.571 544.541 256.708L544.548 256.716C545.775 257.965 546.673 258.878 547.556 259.531C548.401 260.154 548.822 260.219 549 260.219C549.761 260.219 551.104 259.97 553.074 259.39C554.963 258.834 557.073 258.086 559.284 257.299L559.433 257.247C561.543 256.496 563.758 255.708 565.732 255.128C567.609 254.576 569.856 254.024 571.769 254.154C573.359 254.261 574.706 254.993 575.617 255.588C576.604 256.234 577.577 257.057 578.482 257.895C579.858 259.168 581.375 260.76 582.842 262.299L582.843 262.3C583.279 262.757 583.71 263.209 584.131 263.647C586.069 265.659 587.884 267.454 589.541 268.722C590.361 269.35 591.038 269.767 591.573 270.011C592.068 270.236 592.294 270.246 592.314 270.247C592.519 270.238 593.068 270.141 594.098 269.766C595.076 269.411 596.249 268.897 597.634 268.246C598.559 267.81 599.604 267.301 600.721 266.756C602.768 265.757 605.06 264.638 607.316 263.638C610.889 262.054 614.847 260.54 618.804 259.767C622.751 258.996 627.019 258.899 631.002 260.512C634.339 261.864 636.606 263.348 638.164 265.052C639.668 266.698 640.272 268.321 640.616 269.243C640.638 269.303 640.66 269.36 640.68 269.414C640.738 269.569 640.784 269.682 640.817 269.761C640.936 269.805 641.129 269.866 641.423 269.93C642.016 270.06 642.901 270.179 644.211 270.249C646.07 270.347 648.099 269.761 650.522 268.46C652.951 267.155 655.414 265.34 658.224 263.268L658.314 263.202L658.608 262.985C663.863 259.109 670.594 254.144 678.5 254.144C682.617 254.144 685.819 255.379 688.29 257.431C690.645 259.386 692.07 261.874 693.072 263.862C693.337 264.388 693.657 265.058 693.937 265.644L693.939 265.648C694.119 266.024 694.282 266.365 694.403 266.61C694.805 267.426 695.116 267.985 695.399 268.382C695.53 268.566 695.627 268.675 695.688 268.736C696.415 268.663 697.573 268.239 699.111 267.088C700.631 265.949 702.274 264.284 703.901 262.186C707.162 257.981 710.057 252.428 711.664 246.987C714.439 237.595 721.785 209.39 725.126 196.399L730.86 174.106L732.983 197.026L743.546 311.054C744.32 306.33 745.055 301.481 745.769 296.726L745.958 295.472L745.958 295.47C746.966 288.766 747.934 282.319 748.91 276.896C749.923 271.268 751.016 266.283 752.327 263.243C753.068 261.524 754.448 259.535 755.925 257.677C757.459 255.747 759.315 253.692 761.225 251.806C763.124 249.93 765.156 248.141 767.051 246.791C767.996 246.117 768.984 245.496 769.963 245.029C770.869 244.597 772.123 244.121 773.5 244.121C775.835 244.121 777.743 245.271 779.084 246.366C780.473 247.5 781.731 248.968 782.836 250.431C784.444 252.561 786.062 255.155 787.473 257.415C787.966 258.205 788.434 258.955 788.867 259.629C790.822 262.676 793.384 267.275 795.417 271.026C796.127 272.336 796.78 273.559 797.331 274.597C798.737 273.046 800.326 270.711 801.989 268.076C802.561 267.169 803.153 266.208 803.741 265.254L803.741 265.254C804.79 263.55 805.825 261.871 806.703 260.571C807.388 259.559 808.161 258.494 808.95 257.702C809.326 257.324 809.937 256.768 810.75 256.381C811.611 255.971 813.265 255.519 814.973 256.487C818.02 258.215 823.25 259.508 828.899 260.254C834.458 260.988 839.767 261.112 842.628 260.844C844.634 260.657 846.99 260.545 849.23 260.438L849.235 260.438C850.63 260.372 851.98 260.307 853.173 260.228C856.701 259.994 859.105 259.624 860.342 259.061C860.332 259.065 860.333 259.064 860.343 259.057C860.397 259.016 860.716 258.771 861.264 257.935C861.803 257.113 862.301 256.147 862.909 254.966L863.026 254.739C863.082 254.631 863.139 254.52 863.197 254.408C863.861 253.125 864.723 251.488 865.79 250.179C866.838 248.892 868.705 247.158 871.5 247.158C873.107 247.158 874.433 247.832 875.296 248.378C876.215 248.96 877.079 249.704 877.842 250.426C878.879 251.406 880.044 252.658 881.156 253.853C881.626 254.357 882.086 254.852 882.523 255.312C884.125 256.996 885.612 258.435 887.012 259.414C888.46 260.427 889.283 260.57 889.654 260.538C890.323 260.48 891.016 260.251 891.962 259.746C892.634 259.387 893.199 259.03 893.896 258.59C894.361 258.296 894.884 257.966 895.537 257.572C897.937 256.129 900.905 254.635 905 254.073V0ZM905 262.188C902.866 262.642 901.221 263.489 899.663 264.427C899.33 264.627 898.942 264.871 898.526 265.131L898.525 265.132C897.638 265.689 896.623 266.326 895.731 266.802C894.246 267.596 892.477 268.323 890.346 268.508C887.217 268.78 884.477 267.404 882.426 265.969C880.325 264.499 878.375 262.558 876.727 260.825C876.13 260.198 875.584 259.61 875.073 259.061L875.072 259.061L875.071 259.06C874.062 257.975 873.192 257.039 872.345 256.238C872.097 256.003 871.878 255.807 871.686 255.645C871.299 256.211 870.862 257.003 870.303 258.084C870.259 258.169 870.214 258.257 870.168 258.346L870.044 258.586L870.044 258.587C869.457 259.729 868.744 261.118 867.954 262.322C867.076 263.661 865.716 265.403 863.658 266.341C860.895 267.6 857.049 267.989 853.702 268.211C852.149 268.314 850.672 268.382 849.245 268.448C847.21 268.542 845.278 268.632 843.372 268.81C839.733 269.15 833.792 268.97 827.851 268.185C823.039 267.549 817.773 266.462 813.578 264.691C813.5 264.804 813.417 264.924 813.331 265.052C812.534 266.23 811.671 267.633 810.703 269.206L810.703 269.208C810.098 270.191 809.451 271.241 808.755 272.345C807.052 275.043 805.085 277.994 803.104 280.138C802.124 281.198 800.932 282.295 799.562 283.017C798.147 283.764 796.079 284.326 793.902 283.377L792.601 282.81L791.948 281.55L792.756 281.131C791.948 281.55 791.948 281.55 791.948 281.55L791.947 281.548L791.944 281.542L791.931 281.518L791.88 281.418C791.834 281.33 791.766 281.199 791.677 281.03C791.501 280.692 791.244 280.201 790.924 279.593C790.283 278.377 789.39 276.697 788.383 274.837C786.348 271.081 783.911 266.72 782.133 263.95C781.578 263.085 781.034 262.213 780.495 261.349C779.146 259.187 777.828 257.075 776.451 255.252C775.508 254.002 774.695 253.11 774.024 252.562C773.799 252.379 773.631 252.267 773.516 252.199C773.483 252.214 773.447 252.231 773.408 252.249C772.989 252.449 772.414 252.792 771.695 253.305C770.261 254.327 768.561 255.804 766.847 257.497C765.143 259.18 763.505 260.998 762.187 262.656C760.811 264.386 759.98 265.7 759.673 266.411C758.784 268.474 757.819 272.559 756.784 278.313C755.829 283.618 754.876 289.957 753.862 296.708V296.709L753.681 297.915C751.539 312.161 749.098 328.17 745.826 338.894L739.892 358.339L738.017 338.095L727.124 220.505C724.113 231.964 720.966 243.739 719.336 249.254C717.443 255.66 714.088 262.105 710.224 267.088C708.288 269.584 706.15 271.811 703.905 273.492C701.701 275.142 699.121 276.469 696.346 276.709C694.706 276.852 693.162 276.528 691.792 275.748C690.487 275.005 689.558 273.972 688.882 273.023C688.212 272.082 687.672 271.05 687.226 270.146C686.984 269.654 686.798 269.263 686.622 268.891L686.62 268.888C686.405 268.434 686.203 268.009 685.928 267.462C685.055 265.73 684.23 264.458 683.179 263.585C682.243 262.808 680.883 262.144 678.5 262.144C673.554 262.144 668.889 265.345 663.061 269.641L662.744 269.875C660.115 271.814 657.248 273.929 654.306 275.508C651.213 277.169 647.68 278.443 643.789 278.238C640.798 278.08 638.343 277.656 636.481 276.515C634.306 275.183 633.584 273.269 633.205 272.265L633.195 272.238C632.84 271.298 632.703 270.936 632.258 270.449C631.769 269.913 630.661 269.005 627.998 267.927C625.981 267.11 623.437 267.013 620.337 267.618C617.247 268.222 613.924 269.46 610.559 270.952C608.401 271.908 606.412 272.88 604.478 273.825L604.477 273.826C603.319 274.392 602.18 274.948 601.038 275.485C599.587 276.167 598.154 276.804 596.83 277.285C595.557 277.748 594.106 278.172 592.687 278.239C589.538 278.386 586.697 276.62 584.678 275.075C582.491 273.401 580.306 271.209 578.369 269.196C577.866 268.674 577.382 268.166 576.914 267.676C575.491 266.183 574.222 264.853 573.049 263.767C572.282 263.057 571.685 262.575 571.239 262.284C571.139 262.218 571.06 262.171 571.001 262.138C570.528 262.17 569.568 262.339 567.987 262.803C566.23 263.319 564.195 264.044 561.98 264.832L561.966 264.837C559.802 265.607 557.475 266.434 555.333 267.065C553.271 267.671 550.989 268.219 549 268.219C546.428 268.219 544.349 267.107 542.803 265.966C541.394 264.925 540.093 263.598 539.045 262.529L538.834 262.314C537.639 261.098 536.714 260.188 535.804 259.549C534.942 258.944 534.394 258.803 534 258.803C533.705 258.803 533.453 258.865 532.991 259.273C532.394 259.8 531.843 260.541 530.912 261.795L530.835 261.898L530.77 261.986C529.1 264.234 526.138 268.219 520.5 268.219C515.526 268.219 510.216 265.082 506.431 261.633C504.447 259.825 502.649 257.727 501.32 255.514C500.02 253.346 499 250.783 499 248.121C499 246.127 497.657 242.999 495.269 240.199C494.135 238.869 492.924 237.809 491.822 237.126C490.738 236.454 490.052 236.322 489.773 236.319C489.727 236.333 489.483 236.402 488.997 236.666C488.359 237.012 487.548 237.562 486.569 238.335C484.613 239.88 482.323 242.05 479.884 244.53C477.471 246.983 475.007 249.643 472.677 252.158L472.677 252.159L472.642 252.196L472.638 252.2C470.33 254.693 468.116 257.082 466.31 258.865C464.273 260.876 461.384 261.425 459.276 261.679C457.74 261.864 455.915 261.948 454.173 262.028H454.172C453.418 262.063 452.68 262.096 451.987 262.137C446.859 262.441 442.605 263.199 439.754 265.906C439.763 265.897 439.767 265.893 439.764 265.897C439.751 265.916 439.59 266.108 439.316 266.624C439.013 267.195 438.666 267.981 438.285 268.997C437.524 271.03 436.723 273.721 435.91 276.904C434.286 283.256 432.694 291.231 431.288 299.095C429.884 306.943 428.677 314.611 427.821 320.322C427.394 323.176 427.054 325.538 426.821 327.185C426.705 328.008 426.615 328.653 426.555 329.09C426.525 329.309 426.502 329.476 426.487 329.588L426.47 329.715L426.465 329.746L426.464 329.753L426.464 329.755C426.464 329.755 426.464 329.755 425.573 329.635L426.464 329.755L421.428 367.151L418.512 329.531L411.16 234.67C410.473 241.308 410 246.807 410 249.336C410 256.187 407.557 262.293 404.919 266.637C403.594 268.82 402.159 270.657 400.836 272.003C400.182 272.669 399.485 273.285 398.778 273.766C398.27 274.113 397.047 274.902 395.5 274.902C394.29 274.902 393.221 274.418 392.769 274.21C392.144 273.921 391.477 273.55 390.851 273.184C390.261 272.84 389.619 272.449 388.98 272.059L388.822 271.963C388.118 271.534 387.402 271.099 386.674 270.675C385.193 269.812 383.802 269.077 382.595 268.609C381.417 268.153 380.885 268.143 380.803 268.141C380.792 268.141 380.789 268.141 380.794 268.14C380.703 268.158 380.284 268.299 379.296 269.14C378.689 269.657 378.186 270.14 377.586 270.716L377.585 270.717C377.097 271.186 376.544 271.717 375.819 272.378C372.971 274.973 368.969 278.056 363.007 278.818C356.755 279.618 350.915 276.518 346.718 274.044C345.819 273.513 345.011 273.021 344.259 272.562L344.257 272.561C343.051 271.825 341.986 271.176 340.914 270.597C339.127 269.634 338.283 269.434 338 269.434C337.249 269.434 336.381 269.915 334.188 272.288C334.101 272.381 334.013 272.478 333.922 272.577L333.785 272.725L333.785 272.726C332.939 273.648 331.903 274.779 330.785 275.753C329.442 276.925 327.73 278.108 325.565 278.706C323.175 279.366 320.997 279.013 319.163 278.367C317.526 277.791 315.948 276.894 314.667 276.167L314.666 276.167L314.465 276.052C311.583 274.418 309.379 273.277 306.652 273.38C303.376 273.505 300.532 274.497 297.857 275.617C297.447 275.789 297.005 275.979 296.553 276.174L296.548 276.176C295.656 276.561 294.727 276.961 293.933 277.264C292.717 277.728 291.144 278.243 289.5 278.243C287.901 278.243 286.546 277.509 285.776 277.039C284.869 276.484 283.948 275.763 283.078 275.017C281.333 273.523 279.36 271.555 277.476 269.659L276.932 269.112L276.929 269.109C275.185 267.354 273.505 265.662 271.963 264.251C270.142 262.584 268.975 261.752 268.435 261.522C267.126 260.965 264.693 260.945 261.076 261.589C259.388 261.89 257.642 262.293 255.884 262.713C255.608 262.779 255.33 262.846 255.051 262.913L255.02 262.921L255.019 262.921C253.578 263.268 252.117 263.619 250.794 263.887C247.158 264.624 243.274 264.41 239.759 263.975C237.608 263.709 235.288 263.31 233.196 262.95L233.193 262.95C231.995 262.744 230.872 262.551 229.899 262.403C227.112 261.98 225.938 262.033 225.064 262.171C224.56 262.251 224.064 262.374 223.272 262.578L223.18 262.602C222.425 262.796 221.485 263.039 220.294 263.28C218.26 263.692 216.196 263.337 214.513 262.864C212.768 262.375 211.009 261.634 209.429 260.894C208.146 260.293 206.875 259.641 205.767 259.073L205.764 259.071C205.509 258.941 205.263 258.814 205.027 258.694C203.661 257.998 202.756 257.564 202.188 257.367C200.99 256.951 200.081 256.226 199.44 255.608C198.789 254.981 198.213 254.265 197.725 253.62C197.293 253.049 196.924 252.536 196.568 252.039L196.567 252.038C195.995 251.241 195.453 250.486 194.724 249.6C192.638 247.065 190.123 244.952 186.061 244.503C184.643 244.346 182.901 244.847 180.817 246.336C178.744 247.816 176.675 250.038 174.789 252.611C172.92 255.162 171.342 257.905 170.212 260.274C169.01 262.795 168.529 264.449 168.479 264.933C168.211 267.536 166.7 269.476 165.174 270.87C163.648 272.264 161.681 273.498 159.665 274.644C158.16 275.501 156.6 276.33 154.975 277.193L154.974 277.194L154.973 277.194C151.941 278.805 148.685 280.535 145.144 282.783C145.148 282.781 145.147 282.782 145.143 282.785C145.112 282.81 144.894 282.986 144.518 283.489C144.114 284.03 143.643 284.792 143.117 285.8C142.062 287.818 140.935 290.534 139.773 293.788C137.455 300.28 135.142 308.506 133.078 316.656C131.019 324.787 129.23 332.755 127.955 338.697C127.318 341.666 126.81 344.124 126.461 345.839C126.287 346.696 126.153 347.367 126.063 347.823C126.017 348.05 125.983 348.224 125.96 348.341L125.935 348.472L125.928 348.504L125.927 348.511L125.927 348.513C125.926 348.513 125.926 348.513 122 347.75L125.926 348.513L120.286 377.528L118.012 348.058L109.962 243.734C108.859 250.753 107.928 257.386 107.483 262.161C105.806 280.159 93.7189 286.444 87.5 286.444C85.2121 286.444 83.6199 284.919 82.9406 284.216C82.0578 283.302 81.2174 282.135 80.4515 280.976C79.5168 279.56 78.4465 277.764 77.3568 275.936L77.3556 275.934C76.704 274.84 76.0454 273.735 75.4048 272.693C73.5836 269.73 71.7284 266.96 69.8448 264.888C67.8681 262.714 66.4095 261.926 65.4926 261.808C61.7132 261.325 57.8261 262.271 53.861 263.781C52.1269 264.441 50.4732 265.17 48.8236 265.897L48.7512 265.929C48.545 266.02 48.3389 266.111 48.1327 266.201C46.3255 266.996 44.4261 267.815 42.6625 268.351C39.5487 269.296 36.9545 268.221 35.077 266.806C33.5785 265.677 32.1951 264.067 31.0789 262.767L31.0781 262.766C30.9567 262.625 30.8384 262.488 30.7236 262.355C28.0433 259.253 25.8227 257.049 22.5176 256.648C18.6752 256.181 15.3231 257.418 11.2088 259.11C11.0027 259.195 10.7932 259.282 10.5804 259.37C7.61222 260.598 4.005 262.091 0 262.255V500H905V262.188ZM394.169 267.218C394.171 267.215 394.201 267.194 394.259 267.165C394.197 267.207 394.168 267.221 394.169 267.218ZM396.292 267.016C396.282 267.013 396.268 267.008 396.252 267.003C396.294 267.02 396.315 267.026 396.314 267.025C396.314 267.025 396.307 267.021 396.292 267.016ZM290.189 270.346C290.215 270.359 290.227 270.363 290.227 270.363C290.227 270.362 290.221 270.359 290.211 270.355C290.205 270.353 290.198 270.35 290.189 270.346ZM205.105 249.949C205.108 249.951 205.11 249.952 205.111 249.953C205.111 249.954 205.112 249.954 205.112 249.954C205.112 249.954 205.109 249.952 205.105 249.949ZM160.531 264.063C160.531 264.063 160.53 264.066 160.527 264.074C160.529 264.066 160.53 264.063 160.531 264.063ZM88.9281 278.87C88.9285 278.873 88.8994 278.854 88.8397 278.8C88.8978 278.839 88.9276 278.866 88.9281 278.87ZM814.664 263.304C814.665 263.304 814.657 263.312 814.64 263.326C814.656 263.31 814.664 263.304 814.664 263.304ZM872.249 254.956C872.255 254.952 872.258 254.949 872.258 254.948C872.258 254.948 872.251 254.953 872.236 254.965C872.241 254.962 872.245 254.959 872.249 254.956ZM870.883 255.059C870.865 255.052 870.856 255.047 870.855 255.046C870.855 255.046 870.864 255.05 870.883 255.059Z" fill="#E33050"/>
<g opacity="0.6">
<rect width="905" height="2" fill="white"/>
<rect y="38.3076" width="905" height="2" fill="white"/>
<rect y="76.6155" width="905" height="2" fill="white"/>
<rect y="114.923" width="905" height="2" fill="white"/>
<rect y="153.231" width="905" height="2" fill="white"/>
<rect y="191.538" width="905" height="2" fill="white"/>
<rect y="229.846" width="905" height="2" fill="white"/>
<rect y="268.154" width="905" height="2" fill="white"/>
<rect y="306.462" width="905" height="2" fill="white"/>
<rect y="344.769" width="905" height="2" fill="white"/>
<rect y="383.077" width="905" height="2" fill="white"/>
<rect y="421.385" width="905" height="2" fill="white"/>
<rect y="459.692" width="905" height="2" fill="white"/>
<rect y="498" width="905" height="2" fill="white"/>
</g>
</svg>
